<svg xmlns="http://www.w3.org/2000/svg" xmlns:xlink="http://www.w3.org/1999/xlink"  viewBox="0 0 346 309"><defs><clipPath id="a"><rect width="346" height="309" transform="translate(513 85)" fill="#c11" opacity="0.34"/></clipPath><clipPath id="b"><rect width="261" height="227" transform="translate(0.207 -0.295)" fill="#c72424" opacity="0.6"/></clipPath><clipPath id="c"><path d="M0-666.665H337.521v337.521H0Z" transform="translate(0 666.665)"/></clipPath><clipPath id="d"><path d="M309.083-419.057c-14.272.422-25.677,14.788-25.475,32.086h0c2.839,19.889,5.177,33.029,19.449,32.608h0c14.272-.423,32.437-16.838,32.233-34.138h0c-.2-17.035-11.584-30.566-25.562-30.567h0c-.215,0-.429,0-.645.01" transform="translate(-283.606 419.067)"/></clipPath></defs><g transform="translate(-513 -85)" clip-path="url(#a)"><g transform="translate(481.382 61.386)"><path d="M258.99,12.321C282.8,22.994,299.628,49.06,317.279,77.589s35.918,59.726,33.249,89.076c-2.668,29.145-26.271,56.442-52.337,74.5-26.271,18.061-55.211,26.887-85.792,40.228-30.376,13.341-62.394,31.2-88.255,24.834C98.49,300.073,78.992,269.7,54.978,242.81S2.436,192.32.178,166.049c-2.463-26.271,21.14-55.621,37.97-86S64.83,17.863,86.38,6.164s54.39-3.489,86.2-1.642S235.182,1.649,258.99,12.321Z" transform="translate(69.185 0) rotate(13)" fill="rgba(121,222,220,0.44)"/><g transform="translate(85.411 65.91)" clip-path="url(#b)"><g transform="translate(-50.982 -58.729)"><g transform="translate(0 0)"><g clip-path="url(#c)"><g transform="translate(58.82 58.969)"><path d="M-110.255,0A113.061,113.061,0,0,1,2.806,113.061,113.061,113.061,0,0,1-110.255,226.122,113.062,113.062,0,0,1-223.315,113.06,113.061,113.061,0,0,1-110.255,0" transform="translate(223.315)" fill="#f6f5f6" fill-rule="evenodd"/></g><g transform="translate(101.751 259.032)"><path d="M-24.355-.271A54.818,54.818,0,0,1-38.277-.5c-2.036-.352-.942,1.488-.695,1.646,1.287.83,5.9,1.96,5.631,2.236-.552.579-9.281,1.424-12.353,1.362-.309-.006-3.643-.191-3.636.274.015,1.083,1.775,1.351,2.594,1.463,2.775.381,11.3.254,10.874.316-.763.11-7.236,1.332-9.731,1.691-.163.024-3.692.527-3.62.979.146.917,2.9.851,3.538.795,2.5-.217,9.311-.717,10.176-.771a28.427,28.427,0,0,1-3.127,1.044c-2.359.695-4.87,1.017-7.2,1.786-.456.152-2.064.531-1.858,1.312.134.509,1.454.535,1.813.533,2.236-.02,16.932-3.111,20.65-5.27a11.825,11.825,0,0,1,4.291-.929s.449-6.838-3.429-8.236" transform="translate(49.329 0.548)" fill="#dab6e4" fill-rule="evenodd"/></g><g transform="translate(67.873 139.82)"><g transform="translate(0 0)"><path d="M-48.953-11.978c0-6.779-2.938-12.283-9.717-12.283H-89.511c-6.779,0-9.64,5.5-9.64,12.283V.989c0,6.779,2.862,12.283,9.64,12.283h10.346l7.318,10.822s1.863,2.776,3.724,2.488c2.149-.333,1.809-3.972,1.809-3.972l.47-9.338h7.176c6.779,0,9.717-5.5,9.717-12.283Z" transform="translate(99.152 24.261)" fill="#08bdba" fill-rule="evenodd"/></g><text transform="translate(11.316 26.614)" fill="#fff" font-size="27" font-family="JustAnotherHand-Regular, Just Another Hand" letter-spacing="0.066em"><tspan x="0" y="0">404</tspan></text></g><g transform="translate(113.868 191.952)"><path d="M-55.685,0s-8.333,2.567-9.472,13.561c-3.313,32.013-2.11,47.233-5.7,53.586-.756,1.337-35-3.543-35.359-2.594-1.015,2.66-7.656,13.644-6.414,14,3.9,1.12,49.563,13.7,59.317,4.468,8.982-8.5,7.741-25.439,5.7-34.343C-50.2,37.362-42.715.677-55.685,0" transform="translate(112.788)" fill="#0f9794" fill-rule="evenodd"/></g><g transform="translate(155.93 183.304)"><path d="M-76.906-91.116C-85.593-119.968-111.3-182.6-111.3-182.6l-14.03-1.862c-1.765-1.358-19.419,12.477-19.419,12.477s-1.5,8.4-2.923,16.764c-1.306,7.656-8.752,15.6-8.051,19.674,1.628,9.442,13.25,11.718,13.25,11.718,2.06,16.622,3.659,26.558,5.9,35.072" transform="translate(155.77 184.552)" fill="#08bdba"/></g><g transform="translate(175.003 185.387)"><path d="M-23.19-.014s-4.325,9.585-2.19,23.532c.91,5.938,7.887,30.041,9.535,35.845,3.572,12.563-2.329,12.817-14.808,12.9-1.764.012-14.688-1.335-14.948-.24-.728,3.072-3.348,17.585,1.451,18.647,5.864,1.3,36.448,5.068,45.295-6.344C9.29,73.816,6.12,55.189,3.05,45.569-.851,33.34-9.966-.839-23.19-.014" transform="translate(46.97 0.029)" fill="#0f9794" fill-rule="evenodd"/></g><g transform="translate(173.957 256.928)"><path d="M-2.591,0C-.816-.022.9,4.238,1.238,9.518s-.823,9.579-2.6,9.6S-4.848,14.881-5.188,9.6s.824-9.58,2.6-9.6" transform="translate(5.247 0)" fill="#0e6462" fill-rule="evenodd"/></g><g transform="translate(152.747 259.752)"><path d="M-26.438-5.145A52.006,52.006,0,0,1-39.122-10.14c-1.724-1.025-1.474,1.058-1.312,1.289.841,1.211,4.607,3.841,4.252,4.007-.743.348-9.1-1.864-11.9-2.976-.281-.111-3.266-1.428-3.449-.994-.431,1.011,1.076,1.862,1.781,2.248C-47.355-5.26-39.48-2.453-39.894-2.54c-.745-.16-7.187-1.247-9.625-1.771-.159-.033-3.6-.778-3.724-.334-.242.9,2.315,1.785,2.922,1.952,2.385.657,8.84,2.531,9.655,2.777a28.506,28.506,0,0,1-3.3-.1C-46.414-.186-48.85-.75-51.3-.833c-.48-.016-2.112-.216-2.244.579-.086.519,1.116,1,1.447,1.117,2.061.75,16.815,2.925,21.113,2.2a11.644,11.644,0,0,1,4.32.612s3.213-6.189.227-8.817" transform="translate(53.548 10.422)" fill="#e5cbde" fill-rule="evenodd"/></g><g transform="translate(125.684 117.111)"><path d="M-34.014-5.7S-44.682-7.723-49.763-1.07s-3.924,15.622-11.735,18.8-10.449,18.354-2.91,22.92S-66,53.609-66,53.609s-6.813,6.654,1.594,15.044A63.346,63.346,0,0,0-49.763,74.9s-6.123-5.971-4.3-13.489c0,0,.655,12.508,12.232,13.489s19.133-7.12,19.133-7.12L11.14,59.547s19.7-5.132,19.725-18.793S17.619,28.729,15.091,18.892,11.942-.612.97-3.734-23.31-18.428-34.014-5.7" transform="translate(68.893 11.542)" fill="#095150"/></g><g transform="translate(155.977 153.103)"><path d="M-29.506-30.164l-.972-26.11c-2.623-5.577-17.974-5.874-23.1-3.136-4.748,2.534-7.2,8.552-5.78,14.186l12.681,32.462c1.846,6.591,9.937,4.776,13.019.6,7.932-10.751,4.584-17.307,4.157-18" transform="translate(59.764 61.095)" fill="#dcbcd4"/></g><g transform="translate(140.515 159.921)"><path d="M-8.386-10.636l-2.387-10.454s-4.632-2.143-6,2.9,3.988,9.046,8.383,7.557" transform="translate(16.986 21.543)" fill="#e5cbde"/></g><g transform="translate(143.585 125.355)"><path d="M0-31.3C2.837-11.41,5.174,1.73,19.446,1.309S51.884-15.529,51.679-32.829,39.744-63.809,25.472-63.385-.2-48.6,0-31.3" transform="translate(0.005 63.395)" fill="#e5cbde"/></g><g transform="translate(175.563 235.144)"><path d="M0,0S10.659,8.82,24.59,4.513C24.59,4.513,10.082,16.72,0,0" fill="#0f9794" fill-rule="evenodd"/></g><g transform="translate(167.493 163.035)"><path d="M-12.842-2.907c1.415,2.889-.275,6.619-3.773,8.333s-7.481.759-8.9-2.129.275-6.619,3.773-8.333,7.481-.76,8.9,2.129" transform="translate(26.012 5.887)" fill="#dcbcd4" fill-rule="evenodd"/></g><g transform="translate(98.204 75.154)"><rect width="116" height="38" rx="9" transform="translate(-0.016 0.279)" fill="#08bdba"/><path d="M3.958,0l7.319,10.822S13.14,13.6,15,13.31c2.149-.333,1.809-3.972,1.809-3.972L17.28,0H3.958Z" transform="matrix(0.996, 0.087, -0.087, 0.996, 15.751, 36.069)" fill="#08bdba" fill-rule="evenodd"/><text transform="translate(12.984 24.279)" fill="#fff" font-size="21" font-family="JustAnotherHand-Regular, Just Another Hand" letter-spacing="0.035em"><tspan x="0" y="0">Page not found :(</tspan></text></g></g></g><g transform="translate(143.585 125.355)"><g clip-path="url(#d)"><g transform="translate(-3.264 39.387)"><path d="M-12.558-9.442c-1.609,2.785-5.647,3.465-9.021,1.517s-4.8-5.784-3.2-8.57,5.647-3.465,9.021-1.517,4.8,5.785,3.2,8.571" transform="translate(25.435 19.124)" fill="#dcbcd4" fill-rule="evenodd"/></g></g></g><g transform="translate(0 0)"><g clip-path="url(#c)"><g transform="translate(147.186 123.644)"><path d="M0-16.93s3.336-5.961,8.79,0S11.71-1.456,24.694.152s4.85,14.008,13.89,13.5l.982,21.226s23.737-33.2,11.42-52.5S8.61-42.853,0-16.93" transform="translate(0 34.291)" fill="#095150"/></g><g transform="translate(182.238 161.114)"><path d="M0-10.922,4.421-21.614s6-2.278,6.964,2.825S5.194-9.5,0-10.922" transform="translate(0 22.121)" fill="#e5cbde"/></g><path d="M220.255-132.328h66.637v6.512H220.255Z" transform="translate(-108.744 402.854)" fill="#8bdedc" fill-rule="evenodd"/><g transform="translate(55.634 203.557)"><path d="M-84.987-70.405l-7.741-72.2-79.409,5.532L-159.81-70.4Z" transform="translate(172.137 142.602)" fill="#8bdedc" fill-rule="evenodd"/></g><g transform="translate(51.329 203.624)"><path d="M-84.3-71.414l-7.367-73.231-79.074,5.669,11.958,67.618Z" transform="translate(170.737 144.645)" fill="#08bdba" fill-rule="evenodd"/></g><g transform="translate(247.213 111.146)"><path d="M-11.154-87.785s-16.284-7.84-5.788-17.588S-27.5-122.029-21.491-132s13.017-5.392,14.152-11.951S-14.6-155.525-9.181-165.1s11.726-13.721,19.555-12.5S8-157,16.03-153.145,22.965-136.9,10.7-126.132s7.4,17.633-4.141,25.061A130.876,130.876,0,0,0-11.154-87.785" transform="translate(22.593 177.805)" fill="#08bdba" fill-rule="evenodd"/></g><g transform="translate(212.11 154.728)"><path d="M-30.533-65.281s11.4-10.7,2.415-15.1,6.115-15.77.479-21.638-10.406-.349-11.989-5.027.265-11.367-3.3-18.2c-4.653-8.916-13.051-8.8-18.078-2.429-4.083,5.174,8.371,15.1,2.747,20.369S-61.684-92.9-51.248-88.228s-3.626,15.6,5.9,17.931a75.664,75.664,0,0,1,14.819,5.016" transform="translate(61.843 132.224)" fill="#08bdba" fill-rule="evenodd"/></g><g transform="translate(247.557 124.918)"><path d="M-26.708-.025l.206.07.187.111.159.147.127.178.085.2.043.213,0,.218-.048.212-.126.375-.125.374-.126.375-.123.375-.122.375-.121.377-.12.377-.119.377-.118.377-.117.378-.116.378-.114.379-.114.379-.113.379-.111.38-.111.381-.111.381-.109.381-.108.382-.108.383-.106.382-.106.383-.1.383-.1.384-.1.384-.1.384-.1.385-.1.385-.1.385-.1.385-.1.387-.1.387-.1.386-.1.387-.1.387-.1.388-.094.388-.094.389-.093.389-.091.389-.092.389-.091.39-.09.389-.09.39-.088.39-.089.39-.088.391-.088.391-.087.392-.086.392-.172.784-.169.784-.169.785-.166.786-.163.786-.163.786-.161.787-.161.788-.159.788-.158.788-.157.789-.155.789-.155.79-.155.79-.154.79-.305,1.58-.3,1.58-.3,1.58-.3,1.579-.3,1.578-.153.788-.154.788-.155.788-.155.786-.156.787-.157.785-.157.785-.159.784-.161.783-.162.782-.163.782-.165.78-.166.78-.168.778-.467,2.148-.47,2.147-.471,2.148-.474,2.147-.473,2.147-.474,2.148-.951,4.295-.952,4.3-.476,2.147-.475,2.149-.475,2.149-.473,2.148-.472,2.149-.471,2.148-.469,2.15-.466,2.149-.234,1.075-.232,1.075-.232,1.075-.232,1.075-.23,1.075-.23,1.075-.229,1.075-.227,1.075-.227,1.074-.227,1.076-.225,1.075-.225,1.076-.223,1.075-.223,1.075-.222,1.076-.221,1.076-.219,1.076-.219,1.075-.217,1.076-.217,1.077-.215,1.076-.213,1.076-.214,1.077-.211,1.076-.211,1.077-.209,1.077-.208,1.076-.207,1.078-.063.208-.105.19-.142.165-.173.132-.2.092-.212.049-.217,0-.215-.042-.2-.084-.178-.124-.149-.159-.113-.186-.071-.205-.027-.216.018-.217.207-1.078.209-1.079.21-1.079.211-1.079.212-1.079.214-1.079.215-1.079.215-1.079.217-1.077.217-1.078.221-1.079.219-1.077.221-1.078.223-1.077.223-1.077.224-1.078.225-1.077.225-1.077.227-1.077.228-1.077.228-1.077.229-1.077.23-1.076.23-1.077.231-1.076.232-1.075.234-1.076.232-1.077.467-2.151.47-2.151.471-2.15.473-2.149.474-2.15.474-2.149.475-2.149.475-2.147.952-4.3.95-4.294.475-2.147.474-2.147.472-2.146.471-2.146.469-2.146.466-2.144.167-.774.165-.775.164-.776.161-.778.161-.778.159-.78.158-.78.158-.782.157-.784.155-.783.154-.784.155-.786.153-.786.153-.786.3-1.576.3-1.578.3-1.58.305-1.582.306-1.582.153-.793.155-.792.155-.791.157-.792.157-.792.158-.791.16-.792.161-.792.163-.791.164-.79.165-.791.167-.79.169-.79.171-.789.172-.788.087-.395.088-.394.088-.395.089-.393.09-.394.09-.394.09-.394.09-.393.092-.392.093-.394.092-.392.094-.392.1-.392.095-.392.1-.392.1-.391.1-.392.1-.391.1-.389.1-.391.1-.39.1-.389.1-.389.1-.389.1-.389.1-.389.106-.389L-30.5,9.1l.107-.388.108-.387.109-.387.11-.386.111-.387.112-.385.112-.386.114-.385.114-.385.115-.385.117-.384.117-.383.118-.383.12-.383.12-.383.122-.382.123-.381.124-.381L-28.3,1.8l.126-.381.128-.38.127-.378.091-.2.13-.174.163-.144.19-.107.207-.064.217-.021Z" transform="translate(54.096 0.051)" fill="#095150" fill-rule="evenodd"/></g><g transform="translate(221.678 164.682)"><path d="M-1.115,0l.179.034L-.767.1l.155.093.137.118.115.14.088.159L-.158.86l.114.254.226.51.224.512.223.514.221.515.219.516.219.518.217.52.215.52.214.522.213.523.211.525.211.526.209.527.207.528.207.529.206.53.2.531.2.532.2.533.2.533.2.535.2.535.2.536.2.537.2.537.2.537.2.539.2.539.194.539.194.539.193.539.192.54.192.541.383,1.081.38,1.081.38,1.083L8.276,22.9l.378,1.081.753,2.159.377,1.077.377,1.075.377,1.073.378,1.07.19.534.19.533.19.533.19.531.191.531.192.53.192.527.192.528.535,1.461.536,1.461.537,1.462.537,1.463,1.076,2.924,1.077,2.924L17.82,49.3,18.9,52.228l1.077,2.927.538,1.465.538,1.465.537,1.466.536,1.466.535,1.466.534,1.467.533,1.468.532,1.468.531,1.469.529,1.47.528,1.47.527,1.47.525,1.472.522,1.472.522,1.473.26.736.259.738.259.737.259.738.258.737.257.738.045.176.013.18-.018.181-.049.175-.079.163-.105.148-.131.126-.149.1-.165.074-.176.045-.182.014-.18-.018-.175-.05-.163-.079-.147-.106-.127-.13-.1-.151-.074-.165-.257-.737-.258-.736-.258-.736-.259-.736-.259-.735-.259-.736-.52-1.471-.522-1.47-.525-1.468L23.887,72l-.527-1.468-.529-1.468-.53-1.467-.532-1.466-.533-1.466L20.7,63.2l-.535-1.466-.535-1.464L19.1,58.8l-.537-1.463-.537-1.464-1.077-2.926-1.078-2.926L14.789,47.1l-1.078-2.924-1.077-2.925L12.1,39.784l-.537-1.463-.537-1.463L10.487,35.4l-.193-.531-.193-.531L9.91,33.8l-.192-.533-.191-.534L9.335,32.2l-.19-.535-.19-.536-.379-1.073L8.2,28.98,7.819,27.9l-.377-1.078-.754-2.16-.377-1.08L5.933,22.5l-.378-1.08-.38-1.079-.381-1.079L4.6,18.728l-.192-.538-.192-.538-.193-.537-.193-.537-.194-.535-.194-.535-.2-.535-.2-.534-.2-.533-.2-.532-.2-.531-.2-.531-.2-.53-.2-.529-.2-.527-.2-.527-.2-.526-.2-.524L.842,8.628.635,8.105l-.208-.52L.219,7.066.007,6.549-.2,6.032l-.213-.515L-.631,5l-.216-.511-.217-.51-.218-.508L-1.5,2.968l-.221-.5-.223-.5-.112-.25-.113-.251-.059-.171-.029-.179,0-.182.034-.178.065-.169.093-.156.119-.137.14-.115.158-.088.171-.059L-1.3-.005Z" transform="translate(2.259 0.005)" fill="#095150" fill-rule="evenodd"/></g><g transform="translate(223.376 236.613)"><path d="M-40.115,0H-81.25V22.754c0,7.227,9.382,17.257,9.382,17.257l21.642.454s10.112-10.177,10.112-17.712Z" transform="translate(81.25)" fill="#dcbcd4" fill-rule="evenodd"/></g><path d="M15.165.721c1.394.625,2.379,2.151,3.413,3.822s2.1,3.5,1.947,5.216-1.538,3.3-3.064,4.362a28.77,28.77,0,0,1-5.023,2.355c-1.779.781-3.653,1.827-5.168,1.454s-2.644-2.139-4.05-3.713S.143,11.261.01,9.723,1.248,6.466,2.234,4.687,3.8,1.046,5.058.361s3.185-.2,5.047-.1S13.771.1,15.165.721Z" transform="translate(86.485 252.071) rotate(-90)" fill="#8bdedc"/></g></g></g></g></g></g></svg>