<svg xmlns="http://www.w3.org/2000/svg" xmlns:xlink="http://www.w3.org/1999/xlink" width="375" height="667" viewBox="0 0 375 667"><defs><clipPath id="a"><rect width="375" height="667" fill="#fff" stroke="#707070" stroke-width="1"/></clipPath><linearGradient id="b" x1="0.56" y1="0.35" x2="-0.043" y2="0.597" gradientUnits="objectBoundingBox"><stop offset="0" stop-color="#41d2d0"/><stop offset="1" stop-color="#c9fffe"/></linearGradient><linearGradient id="c" x1="0.844" y1="0.527" x2="0.09" y2="-0.03" gradientUnits="objectBoundingBox"><stop offset="0" stop-color="#08bdba"/><stop offset="1" stop-color="#3cf3f1"/></linearGradient></defs><g clip-path="url(#a)"><g transform="translate(-0.311)"><rect width="375" height="667" fill="#08bdba"/><path d="M67.408-39.136c10.594,7.47,18.2,19.15,30.151,32.6C109.646,6.9,126.079,22.116,128.252,38.278c2.309,16.026-9.643,33-25.261,41.423s-34.9,8.285-53.239,15.483c-18.471,7.334-35.855,22-55.412,25.126-19.693,2.988-41.423-5.7-55.276-21.323C-74.654,83.232-80.358,60.415-81.173,38.413S-77.914-4.775-68-21.888c9.914-17.248,25.8-30.287,42.917-34.768C-7.834-61.274,10.637-57.2,26.8-53.533S56.678-46.606,67.408-39.136Z" transform="translate(313.275 510.611)" fill="#41d2d0" opacity="0.22"/><path d="M67.408-39.136c10.594,7.47,18.2,19.15,30.151,32.6C109.646,6.9,126.079,22.116,128.252,38.278c2.309,16.026-9.643,33-25.261,41.423s-34.9,8.285-53.239,15.483c-18.471,7.334-35.855,22-55.412,25.126-19.693,2.988-41.423-5.7-55.276-21.323C-74.654,83.232-80.358,60.415-81.173,38.413S-77.914-4.775-68-21.888c9.914-17.248,25.8-30.287,42.917-34.768C-7.834-61.274,10.637-57.2,26.8-53.533S56.678-46.606,67.408-39.136Z" transform="translate(-5.281 678.255) rotate(-115)" opacity="0.27" fill="url(#b)"/><path d="M139.188-47.547c15.42,10.814,20.827,36.048,37.65,59.679,16.822,23.831,44.859,46.261,51.067,72.1,6.208,25.634-9.212,54.672-30.04,79.906C177.239,189.567,151.4,211.2,122.566,217c-28.838,6.008-60.68-3.6-93.323-12.416s-66.087-16.622-84.512-37.65S-77.3,111.864-69.287,83.827s27.637-49.866,41.455-72.1C-14.014-10.7-6-33.328,9.817-43.942,25.839-54.556,49.67-53.154,74.1-54.155,98.735-55.157,123.768-58.561,139.188-47.547Z" transform="matrix(0.07, 0.998, -0.998, 0.07, 387.252, -7.499)" opacity="0.56" fill="url(#c)"/></g></g></svg>