<svg id="e4ti4t2zyrxw1" xmlns="http://www.w3.org/2000/svg" xmlns:xlink="http://www.w3.org/1999/xlink" viewBox="0 0 1920 1080" shape-rendering="geometricPrecision" text-rendering="geometricPrecision">
<style><![CDATA[#e4ti4t2zyrxw4_to {animation: e4ti4t2zyrxw4_to__to 10000ms linear 1 normal forwards}@keyframes e4ti4t2zyrxw4_to__to { 0% {offset-distance: 0%} 50% {offset-distance: 50%} 100% {offset-distance: 100%} }#e4ti4t2zyrxw4_tr {animation: e4ti4t2zyrxw4_tr__tr 10000ms linear 1 normal forwards}@keyframes e4ti4t2zyrxw4_tr__tr { 0% {transform: rotate(-24.999981deg)} 100% {transform: rotate(335deg)} }#e4ti4t2zyrxw5_to {animation: e4ti4t2zyrxw5_to__to 10000ms linear 1 normal forwards}@keyframes e4ti4t2zyrxw5_to__to { 0% {offset-distance: 0%} 50% {offset-distance: 50%} 100% {offset-distance: 100%} }#e4ti4t2zyrxw6_to {animation: e4ti4t2zyrxw6_to__to 10000ms linear 1 normal forwards}@keyframes e4ti4t2zyrxw6_to__to { 0% {offset-distance: 0%} 50% {offset-distance: 50%} 100% {offset-distance: 100%} }#e4ti4t2zyrxw6_tr {animation: e4ti4t2zyrxw6_tr__tr 10000ms linear 1 normal forwards}@keyframes e4ti4t2zyrxw6_tr__tr { 0% {transform: rotate(-46deg)} 100% {transform: rotate(314deg)} }#e4ti4t2zyrxw7_to {animation: e4ti4t2zyrxw7_to__to 10000ms linear 1 normal forwards}@keyframes e4ti4t2zyrxw7_to__to { 0% {offset-distance: 0%} 32% {offset-distance: 33.333333%} 68% {offset-distance: 66.666667%} 100% {offset-distance: 100%} }#e4ti4t2zyrxw7_tr {animation: e4ti4t2zyrxw7_tr__tr 10000ms linear 1 normal forwards}@keyframes e4ti4t2zyrxw7_tr__tr { 0% {transform: rotate(86deg)} 44% {transform: rotate(156.674243deg)} 76% {transform: rotate(86deg)} 100% {transform: rotate(86deg)} }]]>
</style>
<defs>
  <linearGradient id="e4ti4t2zyrxw4-fill" x1="0.240000" y1="-0.000099" x2="0.358000" y2="0.891000" spreadMethod="pad" gradientUnits="objectBoundingBox">
    <stop id="e4ti4t2zyrxw4-fill-0" offset="0%" stop-color="rgb(83,216,214)"/>
    <stop id="e4ti4t2zyrxw4-fill-1" offset="100%" stop-color="rgb(8,189,186)"/>
  </linearGradient>
  <linearGradient id="e4ti4t2zyrxw6-fill" x1="0.258000" y1="0.156000" x2="0.182000" y2="0.717000" spreadMethod="pad" gradientUnits="objectBoundingBox">
    <stop id="e4ti4t2zyrxw6-fill-0" offset="0%" stop-color="rgb(8,189,186)"/>
    <stop id="e4ti4t2zyrxw6-fill-1" offset="100%" stop-color="rgb(33,209,206)"/>
  </linearGradient>
  <linearGradient id="e4ti4t2zyrxw7-fill" x1="0.844000" y1="0.527000" x2="0.090000" y2="-0.000023" spreadMethod="pad" gradientUnits="objectBoundingBox">
    <stop id="e4ti4t2zyrxw7-fill-0" offset="0%" stop-color="rgb(8,189,186)"/>
    <stop id="e4ti4t2zyrxw7-fill-1" offset="100%" stop-color="rgb(60,243,241)"/>
  </linearGradient>
</defs>
<g id="e4ti4t2zyrxw2">
  <rect id="e4ti4t2zyrxw3" width="1920" height="1080" rx="0" ry="0" fill="rgb(8,189,186)" stroke="none" stroke-width="1"/>
  <g class="blob1-wrapper" style="offset-path:path('M518.054443,481.612278C412.992180,606.646586,320.847267,581.009694,318.860541,566.907353C299.664318,503.634115,515.086973,471.830998,518.054505,481.612368');offset-rotate:0deg">
    <g class="blob1" transform="rotate(-24.999981)">
      <path id="e4ti4t2zyrxw4" d="M669.390000,-32.429000C738.710000,-1.354000,787.712000,74.539000,839.100000,157.600000C890.488000,240.661000,943.678000,331.500000,935.909000,416.953000C928.140000,501.810000,859.418000,581.290000,783.524000,633.877000C707.033000,686.465000,622.773000,712.161000,533.733000,751.004000C445.290000,789.847000,352.066000,841.837000,276.770000,823.312000C202.070000,805.384000,145.301000,716.942000,75.383000,638.658000C5.465000,560.374000,-77.595000,491.655000,-84.168000,415.164000C-91.339000,338.673000,-22.617000,253.218000,26.386000,164.775000C75.389000,76.332000,104.072000,-16.294000,166.819000,-50.356000C229.566000,-84.418000,325.180000,-60.515000,417.806000,-55.137000C510.432000,-49.759000,600.069000,-63.500000,669.390000,-32.429000Z" transform="scale(1,1) translate(-425.990975,-379.437673)" fill="url(#e4ti4t2zyrxw4-fill)" stroke="none" stroke-width="1"/>
    </g>
  </g>
  <g  class="blob2" style="offset-path:path('M352.275000,866.717000C450.102242,884.249843,567.174347,928.466800,496.457889,949.371833C316.325627,1036.471587,218.552916,962.628522,164.322305,1032.110771');offset-rotate:0deg">
    <path class="blob2"  d="M105.400000,-34.133000C118.700000,-24.755000,128.249000,-10.090000,143.255000,6.791000C158.431000,23.672000,179.064000,42.770000,181.792000,63.062000C184.692000,83.183000,169.685000,104.498000,150.076000,115.070000C130.467000,125.642000,106.253000,125.470000,83.233000,134.509000C60.043000,143.717000,38.216000,162.133000,13.662000,166.055000C-11.063000,169.806000,-38.346000,158.893000,-55.738000,139.284000C-72.963000,119.500000,-80.124000,90.856000,-81.147000,63.232000C-82.170000,35.608000,-77.055000,9.008000,-64.607000,-12.478000C-52.159000,-34.133000,-32.209000,-50.500000,-10.724000,-56.130000C10.932000,-61.930000,34.122000,-56.812000,54.414000,-52.208000C74.706000,-47.604000,91.927000,-43.512000,105.400000,-34.133000Z" transform="translate(0,0)" opacity="0.22" fill="rgb(65,210,208)" stroke="none" stroke-width="1"/>
  </g>
  <g class="blob3-wrapper"  style="offset-path:path('M1667.774940,878.929806C1741.050246,696.676167,1368.093724,732.714042,1330.489967,826.243800C1414.201976,882.650562,1696.764712,867.980690,1667.774940,880.596646');offset-rotate:0deg">
    <g class="blob3" transform="rotate(-46)">
     <path id="e4ti4t2zyrxw6" d="M111.130000,-48.589000C124.514000,-39.200000,129.208000,-17.300000,143.809000,3.210000C158.409000,23.895000,182.745000,43.363000,188.133000,65.786000C193.521000,88.035000,180.133000,113.239000,162.060000,135.141000C144.160000,157.216000,121.733000,175.989000,96.703000,181.030000C71.673000,186.245000,44.035000,177.901000,15.703000,170.253000C-12.629000,162.605000,-41.658000,155.826000,-57.650000,137.575000C-73.642000,119.324000,-76.770000,89.775000,-69.817000,65.439000C-62.864000,41.103000,-45.831000,22.156000,-33.837000,2.862000C-21.843000,-16.606000,-14.890000,-36.248000,-1.158000,-45.460000C12.748000,-54.673000,33.432000,-53.460000,54.642000,-54.325000C76.018000,-55.194000,97.746000,-58.149000,111.130000,-48.589000Z" transform="skewX(-0) skewY(0) scale(0.999993,0.999993) translate(-58.015508,-63.606356)" opacity="0.59" fill="url(#e4ti4t2zyrxw6-fill)" stroke="none" stroke-width="1"/>
    </g>
  </g>
  <g class="blob4-wrapper" style="offset-path:path('M1452.359221,37.861033C1467.036288,26.364330,1606.746158,47.540333,1578.146180,69.943000C1617.804823,100.727999,1586.050983,195.183291,1574.430418,186.162834C1535.577596,211.099358,1462.960924,132.013096,1490.915338,114.071389');offset-rotate:0deg">
    <g class="blob4" transform="rotate(86)">
      <path id="e4ti4t2zyrxw7" d="M208.606000,-44.967000C229.064000,-30.620000,236.237000,2.857000,258.555000,34.208000C280.873000,65.825000,318.069000,95.582000,326.305000,129.855000C334.541000,163.863000,314.083000,202.387000,286.452000,235.864000C259.086000,269.606000,224.813000,298.300000,186.552000,306.005000C148.293000,313.976000,106.052000,301.223000,62.742000,289.532000C19.432000,277.841000,-24.935000,267.480000,-49.378000,239.583000C-73.821000,211.686000,-78.604000,166.519000,-67.978000,129.323000C-57.352000,92.127000,-31.313000,63.167000,-12.978000,33.676000C5.356000,3.919000,15.983000,-26.100000,36.973000,-40.185000C58.228000,-54.266000,89.845000,-52.407000,122.258000,-53.735000C154.938000,-55.063000,188.148000,-59.580000,208.606000,-44.967000Z" transform="skewX(0) skewY(0) scale(1.000452,1.000452) translate(-127.418252,-126.523103)" opacity="0.56" fill="url(#e4ti4t2zyrxw7-fill)" stroke="none" stroke-width="1"/>
    </g>
  </g>
</g>
</svg>