<svg xmlns="http://www.w3.org/2000/svg" xmlns:xlink="http://www.w3.org/1999/xlink" viewBox="0 0 421 397"><defs><clipPath id="a"><rect width="421" height="397" transform="translate(531.776 163)" fill="#c72424" opacity="0.6"/></clipPath><clipPath id="b"><path d="M0-666.665H591.966V-74.7H0Z" transform="translate(0 666.665)"/></clipPath><clipPath id="c"><path d="M328.29-419.049c-25.031.74-45.034,25.935-44.679,56.275h0c4.98,34.882,9.08,57.929,34.11,57.19h0c25.031-.741,56.89-29.531,56.533-59.873h0c-.348-29.878-20.318-53.608-44.832-53.61h0c-.378,0-.753.006-1.132.018" transform="translate(-283.606 419.067)"/></clipPath></defs><g transform="translate(-531.776 -163)" clip-path="url(#a)"><g transform="translate(442.317 59.998)"><g transform="translate(0 0)"><g clip-path="url(#b)"><g transform="translate(103.162 103.423)"><path d="M-25.022,0C84.491,0,173.271,88.779,173.271,198.293S84.491,396.587-25.022,396.587s-198.293-88.781-198.293-198.3S-134.536,0-25.022,0" transform="translate(223.315)" fill="#f6f5f6" fill-rule="evenodd"/></g><g transform="translate(178.457 454.306)"><path d="M-5.527-.061s-12.784,1.6-24.419-.408c-3.571-.617-1.652,2.609-1.218,2.888,2.257,1.455,10.339,3.438,9.876,3.922-.967,1.016-16.278,2.5-21.665,2.388-.542-.011-6.39-.335-6.377.481.026,1.9,3.114,2.369,4.549,2.567,4.867.669,19.815.445,19.072.554-1.338.193-12.691,2.336-17.068,2.966-.285.041-6.475.925-6.349,1.718.257,1.609,5.09,1.492,6.2,1.393,4.388-.38,16.33-1.257,17.847-1.352.63-.041-4.147,1.436-5.484,1.832C-34.7,20.1-39.1,20.669-43.179,22.019c-.8.266-3.619.932-3.259,2.3.234.893,2.55.939,3.18.934,3.922-.034,29.7-5.456,36.218-9.243C-4.532,14.555.486,14.383.486,14.383S1.273,2.391-5.527-.061" transform="translate(49.329 0.548)" fill="#dab6e4" fill-rule="evenodd"/></g><g transform="translate(113.627 252.337)"><path d="M-12.263-2.718A21.554,21.554,0,0,0-33.806-24.261H-87.9A21.554,21.554,0,0,0-109.441-2.718V20.024A21.553,21.553,0,0,0-87.9,41.567h18.144l12.836,18.98s3.268,4.868,6.529,4.365c3.77-.585,3.174-6.967,3.174-6.967l.824-16.377h12.585A21.553,21.553,0,0,0-12.263,20.024Z" transform="translate(109.441 24.261)" fill="#08bdba" fill-rule="evenodd"/></g><g transform="translate(128.982 274.427)"><path d="M-.251,0l.124.015L0,.037.118.069l.12.04L.351.157.463.214.571.275l.1.071.1.077L.866.507.952.6l.082.1.073.1L1.174.9l.06.109.052.115.043.117.036.12.028.122.019.123.011.124.139,2.7L1.7,7.138l.067,1.356.066,1.354L1.9,11.2l.064,1.356.062,1.357.059,1.358.057,1.357.052,1.357.05,1.358L2.286,20.7l.022.68.02.677.02.681.018.676v.124l-.011.124-.017.123-.026.123-.036.12-.043.117-.051.115-.058.11-.066.108-.072.1-.079.1-.086.09-.091.086-.1.077L1.53,25l-.107.064-.112.056-.114.05-.118.04-.121.034-.123.025-.124.015L.586,25.3H.462l-.125-.011-.124-.018L.09,25.243l-.12-.036-.118-.044-.115-.051-.11-.057-.105-.065-.1-.075-.1-.078-.09-.086-.085-.091-.079-.1-.071-.1-.063-.108-.058-.111-.049-.115-.041-.118-.033-.121-.025-.122-.015-.125-.008-.123-.018-.675-.019-.671-.022-.674-.02-.672-.046-1.348-.049-1.347-.053-1.348-.057-1.35-.058-1.351L-1.7,12.728l-.062-1.351-.065-1.351-.067-1.352L-1.96,7.323l-.137-2.7-.139-2.7V1.793l.006-.124.014-.125.024-.122.032-.121.039-.117.049-.117.056-.111.064-.108.07-.1.077-.1.084-.094.09-.085.1-.081.1-.076.105-.065.11-.06.114-.052L-.991.088l.12-.036L-.749.024-.625.005-.5,0l.124,0Z" transform="translate(2.237 0.007)" fill="#fff" fill-rule="evenodd"/></g><g transform="translate(142.521 273.32)"><path d="M-.261,0l.127.015.127.024L.115.07.236.113l.118.05L.469.219.578.285.684.358l.1.081L.877.525.966.617l.081.1.073.1.066.11.058.112.051.118.043.121.032.122L1.4,1.53l.017.128.006.127v.129L1.4,2.259,1.385,2.6l-.012.342-.011.342-.009.342-.006.343-.006.343,0,.343,0,.346v.689l0,.346,0,.346,0,.346.006.348.008.347.007.347.009.347.021.7.024.7.028.7.03.7.032.7.065,1.412.066,1.417.032.709.031.713.03.713.026.714.024.715.009.359.009.359.008.358.006.36.007.36,0,.359,0,.36,0,.36v.721l0,.361,0,.361-.006.361-.008.361-.008.362-.013.361-.013.363-.017.358-.009.127-.018.128-.028.124L1.67,25l-.045.12-.053.117-.06.112-.07.107-.075.1-.084.1-.089.092-.1.084L1,25.91l-.107.07-.11.064L.664,26.1l-.12.046-.121.039-.124.03-.127.021-.127.012-.129,0-.127-.006-.127-.014-.127-.024-.123-.031-.122-.04-.117-.049-.115-.058-.11-.065-.105-.072-.1-.081-.094-.086-.089-.092-.081-.1-.075-.1-.067-.11-.058-.111-.051-.118-.044-.121-.034-.123-.025-.126-.017-.127-.008-.127,0-.129.014-.346.013-.342.012-.341.008-.343.008-.342,0-.343,0-.345,0-.343V20.9l0-.345,0-.346,0-.347,0-.346-.008-.348-.007-.348-.009-.348-.009-.348-.024-.7-.025-.7-.028-.7-.031-.7-.031-.7-.067-1.412-.065-1.417-.032-.712-.031-.712-.027-.714-.025-.715-.022-.715-.009-.358L-2.3,7.505l-.006-.36-.007-.36,0-.359,0-.36,0-.359V4.986l0-.361,0-.361,0-.361.008-.361L-2.3,3.18l.012-.362.013-.362.017-.362.015-.356.012-.129.019-.125.027-.125.038-.122.045-.12L-2.048,1l.06-.114.07-.107.077-.1.082-.1.091-.09.1-.084.1-.078.108-.07L-1.251.2l.116-.056L-1.016.1-.894.057-.77.029-.643.008-.517,0l.129,0Z" transform="translate(2.329 0.007)" fill="#fff" fill-rule="evenodd"/></g><g transform="translate(129.182 284.906)"><path d="M-1.905,0l.1.007.1.012.1.018.095.021.094.028.091.032.091.037L-1.157.2l.086.047L-.988.3l.079.053.078.06.073.064.071.067.066.071.064.075L-.5.765l.056.079.049.084.046.086.041.089.037.09.032.092.026.095.02.095.017.1.012.1.007.1v.1l-.006.1-.008.1-.015.1-.02.095-.025.095-.028.094-.037.091-.039.089L-.375,2.7l-.05.085-.053.082-.058.078L-.6,3.025-.663,3.1l-.069.069-.073.065-.076.06-.081.058-.081.052-.085.049-.088.043-.09.038-.091.034-.092.03-.095.025-.1.019-.095.013-.1.008-.411.025-.416.025-.416.022-.418.02-.833.04-.832.037-.832.037-.83.039-.413.021-.412.021-.41.025L-8.506,4l-.407.028-.406.03-.4.033-.4.036-.4.038-.4.04-.2.024-.2.021-.2.024-.2.026-.2.025-.2.027-.193.028-.193.027-.193.031-.192.031-.191.032-.189.034-.189.034-.188.036-.187.037L-14,4.675l-.186.039-.185.041-.185.041-.188.045-.1.02-.1.015-.1.008-.1.006h-.1l-.1-.006-.1-.011-.1-.015-.095-.021-.095-.027-.092-.03-.09-.038-.09-.04-.085-.045-.083-.051-.082-.054-.078-.058-.075-.063-.072-.066-.066-.071-.064-.075-.06-.076-.056-.079-.05-.083-.049-.086-.041-.089-.037-.09-.033-.091-.028-.094-.021-.095-.018-.1-.013-.1-.007-.1v-.1l0-.1.008-.1.015-.1.017-.095.025-.095.03-.092.032-.092.039-.09.043-.088.049-.084.052-.083.056-.081.062-.076.065-.072.069-.07.071-.065.076-.063.078-.057.083-.053.084-.05.085-.045.09-.039.091-.034.092-.031.095-.025.2-.049.213-.049.212-.047.212-.046.214-.043L-14.326,1l.214-.041L-13.9.923l.215-.037.213-.036.215-.037.214-.032.214-.032L-12.61.72-12.4.69l.215-.028.214-.027.217-.026.214-.025.217-.024.429-.045.43-.04.43-.038L-9.6.4l.427-.032.43-.028.426-.026L-7.891.29l.425-.024.425-.021L-6.2.2l.837-.037.83-.037.822-.038.4-.021L-2.9.05l.4-.024L-2.1,0-2,0Z" transform="translate(17.003 0.001)" fill="#fff" fill-rule="evenodd"/></g><g transform="translate(146.431 272.483)"><path d="M-2.036,0l.1.011.1.015.1.022.1.026.1.032.095.038.091.043.089.047.085.052L-1.1.343-1.02.4l.077.065L-.871.54-.8.614l.065.077.06.082L-.62.857l.051.086.045.091.041.091.037.094.031.1.025.1.019.1.015.1.009.1,0,.1,0,.1-.008.1-.013.1-.018.1-.025.1-.03.1L-.475,2.5-.514,2.6l-.045.09-.05.088-.056.085-.058.082-.065.077-.067.076-.071.071L-1,3.232l-.079.064-.083.057-.086.053-.088.049-.091.045-.094.038-.095.033-.1.028-.1.022-.1.018-.228.033L-2.38,3.7l-.237.031-.236.027-.237.025-.236.025-.237.021-.234.019-.236.018-.232.017L-4.5,3.9l-.232.013-.233.012-.231.011-.232.009-.232.008-.457.014-.457.012-.453.008L-7.479,4l-.9.009-.444,0-.442.007-.438.007-.435.011-.433.012-.214.008-.213.008-.214.008-.212.012-.212.011-.21.013-.21.014-.21.015-.208.017-.206.018-.207.02-.2.02-.2.024-.2.025-.2.027-.2.027-.2.031-.2.032-.2.034-.2.037-.2.038-.2.041-.194.043-.194.046-.2.046-.2.054-.1.022-.1.018-.1.012-.1.006h-.1l-.1,0-.1-.011-.1-.017-.1-.02-.1-.026-.1-.034-.094-.037-.092-.041-.089-.047-.085-.053-.085-.056-.079-.063-.077-.065-.072-.07-.069-.073-.065-.078L-17.838,4l-.057-.084-.051-.086-.045-.09-.043-.092-.036-.095-.03-.1-.026-.1-.02-.1-.015-.1-.008-.1,0-.1,0-.1.008-.1.013-.1.019-.1.024-.1.03-.1.033-.095L-18,2.174l.045-.09.05-.088.054-.085.058-.082.064-.078.069-.075.071-.071.077-.067.078-.062.083-.059.085-.053.089-.049.091-.043.092-.04L-16.9,1.2l.1-.027.228-.06.239-.059L-16.1,1l.239-.052.238-.05.239-.046.24-.044L-14.9.763l.238-.039.238-.034.237-.034.238-.032L-13.715.6l.234-.027.236-.024.236-.024.236-.02.233-.019.234-.015.232-.018.233-.013.233-.013.231-.011L-11.144.4l.23-.011.232-.007.457-.013.455-.011.455-.008.451-.006.448-.006.89-.011.44-.006.438-.007.435-.012.433-.013.213-.007.213-.009.214-.009.212-.012.211-.011.211-.015L-4.3.216-4.088.2l.207-.017.208-.019.206-.02.2-.024L-3.056.1l.2-.026.2-.026.212-.031.1-.013.1-.006h.1Z" transform="translate(18.173 0.005)" fill="#fff" fill-rule="evenodd"/></g><g transform="translate(153.422 273.773)"><path d="M-.249,0l.124.014L0,.035.12.067.239.1.353.152.467.206.575.27.68.339l.1.078L.872.5.96.589l.079.095.076.1L1.182.89,1.241,1l.053.112.045.117.037.12.028.122.019.123.013.125.039.684.037.688.034.687.033.688.03.688.027.685.027.687.024.685L1.71,7.9l.021.685.019.684.019.685L1.8,11.32l.031,1.365.03,1.365.027,1.364.03,1.36.031,1.36.034,1.359L2,20.172l.019.678.02.677.022.678.024.677.024.678v.125l-.008.123-.017.125-.024.122-.036.121-.04.117-.05.116-.057.11-.065.108-.072.1-.078.1-.085.092-.091.085-.1.079-.1.072-.107.066-.11.057-.115.05-.118.043-.12.034L.6,25.434l-.123.017-.125.009H.227L.1,25.453l-.125-.018-.122-.025-.121-.032-.118-.044-.114-.05L-.61,25.23l-.107-.065-.1-.073-.1-.078-.091-.084-.085-.092-.079-.1-.072-.1-.066-.107-.057-.111-.051-.115-.041-.117-.036-.121-.025-.122-.018-.124-.009-.124-.025-.684-.024-.685-.022-.685-.02-.684-.019-.685-.019-.684-.033-1.367-.031-1.366-.03-1.365L-1.8,14.128l-.03-1.363-.031-1.359-.034-1.359-.019-.677-.019-.678-.02-.677-.024-.678L-2,6.659l-.026-.675-.026-.677-.031-.675-.031-.676-.034-.674-.037-.674-.039-.678,0-.124,0-.125.014-.124.022-.123.031-.121.039-.118.047-.116.054-.114.063-.108.07-.1.076-.1L-1.718.56-1.63.473l.1-.081.1-.075L-1.328.25l.11-.06.112-.053L-.988.093l.12-.038L-.746.028l.124-.02L-.5,0l.124,0Z" transform="translate(2.224 0.007)" fill="#fff" fill-rule="evenodd"/></g><g transform="translate(164.223 270.684)"><path d="M-2.071,0l.128.011h.008l.136.02.134.031.13.04.007,0,.1.039.1.043.095.05.007,0,.1.062.1.066.008.007L-.955.43l.066.057.007.008.07.066.067.07.017.02.057.064.052.067.053.072.073.114.056.1.049.089.043.082.041.085.066.146.064.15.059.144L-.06,1.9l.053.137.085.237.064.181.038.109.058.187.051.175.049.176.044.176.044.175.039.176L.5,3.811l.037.175.032.175L.6,4.338l.028.175.026.175.025.175L.7,5.038l.021.175.019.173.018.174.015.172L.791,5.9l.013.17.011.172.011.169.009.17.008.17.012.332.008.332.006.327,0,.318,0,.643v.641l0,1.275,0,1.275,0,1.274,0,1.27v1.9l0,.633,0,.632,0,.632.008.631.009.631.009.63.014.63.017.627.018.627.021.626.026.627.027.625.033.626.017.311.019.311.02.311.02.311.021.311.021.31.025.31.024.313.026.31.027.31.028.309.03.315.007.136,0,.136-.013.136L1.3,28.8l-.033.133-.043.129-.052.128-.062.122-.071.117-.079.112-.086.1-.1.1-.1.091-.109.084L.451,30l-.12.066-.124.057-.129.049-.13.038-.134.028-.136.018-.137.007-.136,0-.137-.013-.135-.022L-1,30.19l-.13-.041-.127-.053-.122-.06-.118-.071-.11-.079-.105-.088-.1-.1-.091-.1-.083-.108-.077-.115-.065-.121-.058-.123L-2.235,29l-.038-.131L-2.3,28.74l-.018-.136-.031-.321-.03-.324-.028-.324-.026-.323-.027-.324-.024-.324-.024-.323-.022-.324-.02-.322-.02-.323-.019-.324-.019-.324-.032-.645-.03-.646-.027-.644-.021-.646-.019-.644-.017-.645-.014-.643-.012-.644-.008-.642-.006-.643-.006-.642,0-.642,0-.641V14.436l0-1.276.006-1.274,0-1.272,0-1.268V8.713l0-.629v-.35l-.049.125-.175.47-.355.948-.181.479-.182.479-.186.481-.095.244-.1.242-.1.242-.1.242-.1.243-.1.242-.1.243-.107.242-.107.244-.108.237-.134.3-.083.181-.092.2-.1.207-.057.114-.058.111-.06.114-.063.117-.066.117-.07.117-.073.12-.075.122-.079.122-.084.122-.089.122-.095.122-.1.122-.107.124-.109.114-.065.067-.064.062-.065.059-.069.062-.071.059-.075.058-.079.059-.083.058-.085.054-.09.056-.1.052-.1.051-.1.047-.073.031-.125.045-.13.037-.131.027-.133.018L-8.3,16.7l-.134,0-.135-.011-.133-.022-.129-.032-.128-.04-.125-.05-.121-.06-.116-.066h0l-.109-.076-.1-.083-.1-.09-.09-.1-.058-.065-.086-.121-.089-.133-.1-.154-.115-.185-.275-.446-.313-.515-.6-.984-.211-.343-.06-.1-.026-.039-.12-.184-.13-.207-.127-.206-.123-.2-.121-.2-.117-.2-.116-.2-.111-.2-.219-.393-.214-.386-.212-.379-.1-.181-.1-.181-.1-.179-.105-.174-.105-.169-.1-.166L-13.992,9l-.109-.161-.052-.076-.053-.076-.054-.077-.056-.075-.054-.072-.056-.072-.056-.072-.057-.071-.056-.069-.057-.067-.058-.067-.058-.065-.034-.039.011.225.018.269.038.53.014.257.008.131,0,.122.021.465.02.463.021.469.019.472.009.24.008.242.007.243,0,.244,0,.245,0,.246v.5l0,.349L-14.6,14l-.009.346-.012.346-.011.343-.013.343-.028.68-.028.676-.03.671-.026.667-.012.328-.009.332-.006.258-.006.257-.009.522,0,.521,0,.522v.523l0,.526,0,.527,0,.526.006.529.007.529.015,1.064.017,1.067.006.535,0,.535,0,.135-.014.136-.024.135-.034.134-.044.129-.053.125-.064.123-.071.116-.079.111-.089.1-.1.1-.1.09-.11.083-.115.073-.12.065-.127.057-.128.046-.133.037-.134.027-.136.017-.137.006-.136,0-.136-.014-.135-.024-.133-.034-.13-.044-.125-.054-.122-.062-.116-.072-.112-.079-.1-.089-.1-.1-.091-.1-.082-.11-.075-.116-.065-.12-.056-.125-.047-.128-.037-.133-.026-.134-.017-.136-.007-.137,0-.528-.007-.529-.014-1.061-.015-1.064-.008-.535-.006-.535-.006-.538,0-.538,0-.54,0-.54v-.542l.007-.542.008-.541.007-.273.007-.272.011-.345.011-.346.027-.682.028-.68.028-.672.028-.67.013-.332.011-.331.011-.329.008-.329.007-.327,0-.323V12.83l0-.22,0-.22,0-.223-.007-.224-.007-.225-.009-.225-.019-.459-.02-.462-.022-.469-.019-.468,0-.1,0-.1-.014-.23-.037-.527-.018-.292-.018-.3-.007-.162-.006-.162,0-.166,0-.167V7.086l0-.174.007-.178.009-.178.014-.179.018-.182.022-.176.014-.1.014-.092.017-.095.018-.094.019-.095.021-.095.024-.095.025-.1.027-.1.028-.1.032-.1.036-.1.037-.1.041-.1.044-.1.064-.134.044-.079.057-.094.062-.088.015-.022.067-.086.072-.083.019-.019.077-.077.082-.073.019-.018.084-.066.086-.059.021-.015.085-.052.086-.049.025-.013.083-.04.085-.036.026-.011.079-.03.079-.024.1-.028.17-.036.156-.02.146-.008h.135l.123.006.116.011.108.015.1.015.1.02.091.022.088.022.083.025.082.025.086.03.141.052.143.058.139.06.133.062.128.063.127.065.121.065.117.065.112.063.109.065.105.063.1.062.1.063.17.112.156.108.131.1.082.064.076.064.12.108.1.1.1.095.1.1.1.1.094.1.091.1.09.1.089.1.086.1.085.1.084.1.081.1.081.1.079.1.076.1.077.1.073.1.075.1.073.105.137.2.135.207.13.207.128.206.123.206.121.2.118.2.116.2.221.4.215.391.213.382.105.186.1.184.1.181.1.176.1.173.1.169.105.167.121.184.05.081.078.124.2.335.066-.143.1-.218.1-.22.094-.221.095-.224L-7.7,10.3l.092-.225.09-.228.09-.227.09-.227.179-.463.176-.465.176-.469.355-.947.179-.477.181-.479.185-.481.188-.481.1-.244.1-.243.1-.242.1-.23.008-.024.013-.031.047-.129L-5.12,3.6l.086-.237.1-.258.1-.271.057-.143.058-.142.059-.143.062-.143.065-.146.066-.144L-4.4,1.83l.071-.143.077-.144L-4.17,1.4l.083-.137.051-.081.05-.073.052-.075.057-.078.06-.078L-3.75.8l.075-.083.083-.085L-3.5.54l.11-.092.129-.094L-3.11.259l.1-.05L-2.93.17l.085-.036.024-.011L-2.7.084l.12-.033.121-.025h.006l.129-.018L-2.2,0Z" transform="translate(18.485)" fill="#fff" fill-rule="evenodd"/></g><g transform="translate(186.439 270.949)"><path d="M-.285,0l.139.018.137.03L.126.084l.131.05L.385.192.507.261.624.339l.11.086.1.094.1.1.088.11L1.1.847l.07.121.062.128.051.131.04.133.031.139.019.137.009.141,0,.14-.032.63-.031.629-.027.63-.026.632-.026.635-.022.636-.021.638-.019.639-.017.639-.013.642-.011.641-.009.643,0,.643,0,.643v.643l0,.642.006.643.011.641.014.642.017.641L1.178,15l.012.317.012.32.013.317.013.318.015.318.015.316.017.317.018.315.019.315.02.316.022.314.021.315.022.313.025.313.026.311.027.313.026.31.03.31.031.309.032.308.032.308.034.307.037.32.008.083.008.1.006.094,0,.1.006.18,0,.187v.387l-.008.4-.008.418-.009.429,0,.214v.424l0,.21,0,.2.006.2.008.2.007.088.006.089.006.088.009.083.008.081.008.078.011.072.009.069.012.065.011.06.011.053.011.047.021.008.051.018.047.013L2,26.963l.056.013.058.012L2.181,27l.066.008.07.008.072.007.076.006.078,0,.081,0h.25l.088,0,.088,0,.088,0,.089,0,.085-.007L3.494,27l.185-.018.442-.047.453-.047.455-.049.456-.046.457-.05L6.4,26.69l.224-.028.225-.028.226-.027.224-.031.223-.031.223-.031.22-.036.218-.034.217-.034.215-.039.213-.038.212-.041.208-.043L9.45,26.2l.2-.045.2-.049.2-.05.2-.051.193-.053.2-.059.135-.034.139-.024.141-.013.14,0,.14.007.14.019.137.031.134.04.131.05.127.06.122.07.116.079.109.088.1.1.1.1.086.11.078.117.07.122.059.128.05.13.04.135.028.137.018.139.007.14,0,.141-.013.139-.025.14-.036.136-.045.131-.056.13-.065.123-.073.121-.083.112L12.5,28.9l-.1.1-.105.091-.115.083-.118.073-.124.064-.13.056-.133.044-.227.066-.239.067-.243.064-.243.06-.243.057-.244.054-.245.052-.244.05-.244.047-.245.044-.245.044-.245.041-.245.038-.244.038-.244.034L7.79,30.2l-.243.032-.244.031-.239.031-.243.028-.475.054-.471.051-.465.05-.458.047-.449.047-.448.046-.223.024-.234.02-.13.008-.127.008-.131.008-.133,0-.135,0-.139,0H2.664l-.142,0-.144,0-.147-.008-.149-.012-.15-.014-.153-.017-.156-.024-.156-.025-.157-.031-.161-.036-.161-.043-.162-.046-.155-.051-.091-.032L.5,30.323l-.082-.032-.083-.036-.083-.038L.166,30.18l-.082-.04L0,30.1l-.082-.046L-.163,30l-.082-.05L-.324,29.9-.4,29.847l-.081-.057-.078-.059-.083-.065L-.721,29.6-.8,29.536l-.07-.069L-.93,29.4l-.063-.071-.058-.071-.054-.072-.059-.079-.085-.131-.083-.14-.073-.14-.063-.136-.058-.136-.051-.134-.044-.133-.041-.13-.036-.13-.033-.129-.027-.128-.027-.129-.022-.127-.022-.127-.019-.127L-1.866,27l-.017-.127-.012-.125-.013-.128-.009-.125-.009-.125-.008-.13-.012-.246-.008-.251,0-.247,0-.246v-.243l0-.239,0-.234.009-.445.009-.417.007-.374v-.438l0-.112v-.037l0-.034,0-.026,0-.027-.036-.309-.036-.322-.034-.323-.033-.323-.032-.324-.031-.324-.027-.323-.028-.326-.027-.327-.025-.327-.026-.327L-2.3,18.74l-.021-.327-.02-.328-.02-.328-.019-.329L-2.4,17.1l-.017-.329-.014-.328-.014-.33-.014-.33-.012-.329-.011-.331-.011-.33-.018-.658-.014-.662-.009-.662-.008-.659,0-.662v-.659l0-.661,0-.658.009-.658.012-.656L-2.5,7.54l.017-.656.019-.651.022-.651.022-.648.025-.646.028-.644L-2.341,3l.032-.639.031-.632.013-.14.024-.139.032-.136.045-.134.053-.129.065-.125.072-.12.083-.115L-1.8.589l.1-.1L-1.595.4l.111-.083.118-.075.124-.066.129-.056L-.978.07-.844.035-.7.011-.565,0l.14,0Z" transform="translate(2.545 0.007)" fill="#fff" fill-rule="evenodd"/></g><g transform="translate(152.04 124.225)"><path d="M-11.11-2.718c0-11.89-5.152-21.543-17.042-21.543H-82.244c-11.889,0-16.908,9.653-16.908,21.543V20.024c0,11.89,5.019,21.543,16.908,21.543H-64.1l12.835,18.98S-48,65.414-44.734,64.91c3.768-.584,3.173-6.966,3.173-6.966l.824-16.377h12.585c11.889,0,17.042-9.653,17.042-21.543Z" transform="translate(99.152 24.261)" fill="#08bdba" fill-rule="evenodd"/></g><g transform="translate(171.09 146.098)"><path d="M-1.724,0l.1.009.1.014.1.019.095.024.1.03.092.034.091.039.088.044.086.05L-.8.316l.081.058.077.063L-.563.5l.07.07.066.075.06.077L-.308.8l.053.083.049.086.043.089.04.092.033.092.028.1.025.1.019.1.013.1.007.1,0,.1,0,.1-.009.1-.013.1-.019.1-.024.1-.03.095-.033.094-.04.091-.045.088-.049.086-.054.085-.057.079-.063.078L-.5,3.092l-.07.07-.075.066-.077.06-.243.185-.25.186-.251.184-.251.181-.251.179-.252.178-.253.174-.253.175-.252.172-.253.168-.253.169-.256.168-.5.329-.508.328-.5.323-.5.32-.5.318-.5.317-.495.318-.493.317-.243.16-.244.159-.24.161-.25.167-.1.063-.1.066-.105.063-.105.063-.1.06L-9.348,9l-.207.11-.211.111-.21.107-.414.212-.2.1-.2.1-.188.1-.088.047-.084.049h0l.027.014.059.031.057.027.13.063.133.059.137.059.122.051.125.051.127.051.128.05.13.049.13.047.271.1.277.1.282.1.574.2.22.076.218.072.218.07.22.069.22.067.224.065.224.067.225.063.226.064.228.064.463.125.944.251.182.05.187.052.365.105.362.107.358.107.353.11.348.108.691.212.339.1.337.1.335.1.165.046.163.045.165.045.165.041.162.043.162.039.162.038.161.037.161.037.17.034.1.024.095.027.094.033.092.038.089.044.086.047.085.053.081.056.078.063.075.065.071.069.067.073.062.076.06.081.053.083.051.086.044.088L2,14.689l.034.092.031.095.025.1.019.1.015.1.009.1,0,.1v.1l-.008.1-.011.1-.019.1-.022.1-.028.095-.032.094-.039.091-.043.091-.049.085-.052.085-.058.081-.06.078-.066.075-.069.071-.073.066-.076.064-.081.058-.083.056-.085.049-.089.045-.09.04-.094.037-.095.03-.1.024-.1.021-.1.014-.1.008-.1,0H.23l-.1-.006-.1-.013-.1-.018-.186-.038L-.445,17.1l-.193-.043-.193-.046-.191-.047-.188-.047-.188-.049-.187-.051-.186-.051-.186-.052-.362-.1L-2.68,16.5l-.358-.109-.7-.217-.346-.107-.341-.1-.337-.1-.335-.1-.336-.1L-5.6,15.62l-.167-.046-.945-.252-.478-.13-.243-.066-.242-.069-.244-.069-.243-.071-.244-.072-.246-.076-.246-.077-.246-.079-.249-.082-.242-.082-.579-.2-.294-.1-.3-.1-.3-.109-.155-.058-.155-.058-.155-.06-.156-.063-.159-.063-.16-.067-.186-.081-.189-.085-.187-.089-.1-.05-.1-.05-.1-.051-.1-.052-.1-.054-.1-.056-.1-.059-.1-.059-.1-.063-.1-.064-.09-.06-.088-.062-.085-.062-.085-.064-.082-.065-.082-.064-.081-.069-.077-.069-.076-.071L-14.4,12.1l-.073-.075-.071-.076-.071-.078-.069-.082-.065-.084-.065-.086-.063-.089-.06-.094L-15,11.339l-.054-.1-.051-.1-.049-.105-.044-.107-.041-.112-.036-.112-.032-.116-.026-.118-.02-.12-.017-.121-.011-.121,0-.122V9.864l.006-.122.012-.118.017-.116.021-.115.027-.11.031-.11.032-.1.039-.1.04-.1.041-.095.046-.091.047-.088.05-.085.051-.081.051-.078.053-.075.053-.071.054-.07.057-.069.06-.071.107-.114.114-.115.116-.107.115-.1.117-.1.117-.09.117-.088.117-.083.118-.081.116-.077.12-.073L-13.2,6.9l.117-.07.117-.067.117-.066.12-.065.226-.122.226-.118.221-.114.417-.211.192-.1.178-.094.166-.089.07-.039.069-.038.062-.036.056-.034.047-.03.051-.034.244-.163.252-.167L-10,5.075l.255-.167.506-.328.507-.323.5-.322.5-.318.5-.318.5-.317.493-.317.49-.32.242-.16.24-.161.24-.16.238-.162.238-.162.236-.162.232-.165.233-.166.23-.166.23-.168.227-.169.23-.174.082-.058.083-.053.086-.05.089-.043L-2.5.125l.092-.032.095-.03.1-.024.1-.018.1-.014.1-.008.1,0Z" transform="translate(15.383 0.003)" fill="#fff" fill-rule="evenodd"/></g><g transform="translate(189.801 141.632)"><path d="M-2.04,0-1.9.02l.14.032L-1.621.1l.134.053.129.064.123.073.117.084.11.091.1.1L-.81.671l.086.115.076.123.066.127.056.131L-.48,1.3l.036.14.025.142.012.142v.144l-.009.143-.021.142-.032.14-.043.139-.054.133-.251.56-.257.564-.258.56-.262.559-.265.556-.265.554-.269.554-.269.551-.272.551-.272.547-.275.547-.277.546-.276.545-.277.545-.556,1.082-.558,1.08-.558,1.079-.555,1.076L-7.09,15.7l-.276.536-.273.538-.271.539-.271.538-.269.54-.266.538-.265.541-.26.538-.173.362-.169.36-.167.365-.163.366-.163.368-.161.371-.16.372-.159.374-.157.375-.157.378-.316.759-.315.765-.32.767-.162.386-.163.386-.167.387-.167.387-.17.387-.174.388-.178.387-.182.387-.182.385-.1.2-.095.193-.1.193-.1.192-.1.194-.1.193-.1.192-.1.192-.1.193-.107.192-.105.192-.109.191-.11.191-.108.185-.077.123-.086.114-.1.109-.1.1-.11.092-.118.083-.123.072-.13.062-.134.053-.137.041-.141.032-.142.019-.144.008-.143,0-.143-.014-.142-.025-.139-.036-.136-.047-.133-.058-.125-.067-.122-.077-.115-.088-.107-.095-.1-.1-.091-.111-.082-.118L-18,32.1l-.062-.129-.052-.135-.041-.137-.032-.14-.019-.142-.009-.143,0-.144.014-.143.025-.142.036-.139.047-.136.058-.131.069-.128.1-.173.1-.169.1-.17.095-.17.095-.17.092-.173.092-.173.091-.173.09-.174.09-.175.089-.176.088-.176.088-.176.085-.176.172-.36.168-.361.166-.362L-16,26.43l.162-.368.16-.368.16-.372.159-.374.157-.375.315-.757.315-.761.317-.766.16-.386.163-.386.165-.387.165-.387.169-.387.172-.388.174-.39.179-.388.181-.388.185-.387.27-.554.27-.552.272-.549.273-.549.276-.547.276-.546.277-.545.278-.543.556-1.083.556-1.081.558-1.076.555-1.076.553-1.076L-7.3,8.1l.272-.536.272-.538.269-.539.269-.538.265-.539.265-.539.26-.54.259-.54.257-.541.255-.541.251-.543.247-.545.247-.551.064-.129L-3.77.818-3.686.7l.091-.11.1-.1.108-.095.116-.085.122-.076.127-.067.133-.056.136-.046.141-.036L-2.47,0l.142-.012h.143Z" transform="translate(18.211 0.011)" fill="#fff" fill-rule="evenodd"/></g><g transform="translate(206.032 147.658)"><path d="M-.779,0l.114.008.11.017.11.024.11.028.107.038.1.041.1.05.1.056L.17.323.262.389.348.461.43.54.506.621.612.743l.1.111.1.11.1.111.107.11.109.11.11.109.112.108.114.109.117.108.118.108.12.108.122.107.123.107.125.105.127.107.129.107.129.1.133.105.133.1.135.1.135.1.136.1.137.1.281.208.285.207.287.2.291.206.3.206.3.2.6.414.6.413.3.208.305.21.3.212.3.214.3.215.3.218.3.22.15.114.149.111L8.9,7.1l.148.115.147.114.108.088h0l.033.02.049.028.057.032.153.084.379.207.215.117.223.125.118.069.116.07.118.071.121.073.12.078.118.082.121.084.123.091.123.1.117.1.07.064.064.062.065.065.066.071.069.078.069.085.069.094.07.1.071.118.069.13.063.15.05.143.033.116.022.095.019.095.015.095.014.095.009.1.006.094,0,.094v.092l0,.091-.006.091-.009.089-.011.088-.013.085-.015.085-.02.095-.038.148-.049.154-.056.147-.058.141-.064.135-.065.128-.07.123-.073.118-.075.114-.078.109-.077.107-.081.1-.082.1-.082.1-.085.092-.083.091-.088.088-.085.085-.088.083-.088.081-.088.081-.089.078-.089.075-.089.076-.089.072-.091.07-.089.07-.092.07-.176.129-.176.127-.174.12-.173.114-.168.11-.163.1-.159.1-.152.091-.143.085-.14.079-.238.136-.2.109-.2.108-.2.108-.2.1-.2.1-.2.1-.2.1-.2.1-.2.1-.2.095-.2.094-.2.092-.2.091-.2.09-.2.089-.2.088-.2.088-.4.169-.4.167-.4.165-.4.16-.4.159-.4.156-.794.309-.793.308L.6,18.931l-.39.154-.388.154-.386.156-.381.159-.38.16-.378.163-.186.081-.186.083-.186.083-.185.085-.182.085-.182.085-.182.088-.18.088-.18.09-.178.09-.179.09-.176.092-.175.094-.181.1-.1.051-.1.044-.105.038-.108.032-.111.024-.111.018L-5,21.326l-.111,0-.114,0-.111-.009-.112-.017-.11-.025-.108-.031-.108-.036-.1-.044-.1-.05-.1-.056L-6.169,21l-.09-.067-.085-.073-.082-.078L-6.5,20.7l-.072-.088-.066-.091-.059-.095-.053-.1-.049-.1-.041-.105-.033-.108L-6.9,19.9l-.021-.111-.014-.111-.007-.112,0-.112.006-.112.015-.114.02-.11.026-.109.034-.109.04-.1.046-.1.054-.1.058-.1.065-.094.07-.088.076-.084.081-.078.085-.075.09-.069.094-.062.1-.058.194-.1.2-.108.2-.1.2-.1.2-.1.2-.1.2-.1.2-.1.2-.095.2-.095.2-.092.2-.091.2-.091.2-.089.4-.174.406-.17.4-.168.4-.165.4-.16.4-.159.4-.157.8-.309.791-.307.392-.153.39-.154.387-.155.382-.155.381-.157.38-.161.185-.078.187-.082.186-.082.186-.083.182-.083.184-.084.182-.084.182-.086.179-.085.179-.089.179-.088.176-.09.176-.09.175-.092.173-.092.174-.094.17-.1.207-.117.11-.065.117-.069.122-.073.127-.078.128-.081.13-.085.13-.086.13-.089.128-.091.128-.095.057-.044.06-.046.059-.046.057-.046.054-.046.053-.045.012-.011-.017-.009-.191-.105L7.834,10.8l-.182-.1-.1-.053-.094-.054-.094-.058-.1-.062L7.163,10.4l-.1-.072-.15-.12-.128-.1L6.661,10,6.53,9.9,6.4,9.8l-.13-.1-.273-.2-.278-.2-.282-.2-.288-.2-.29-.2-.295-.2-.3-.2-.6-.412-.611-.418-.307-.214-.31-.214-.309-.218-.308-.22-.309-.224L1.2,6.143l-.153-.117L.893,5.91.742,5.794l-.153-.12L.437,5.557l-.15-.121-.15-.123-.15-.122-.147-.124L-.31,4.943l-.146-.128L-.6,4.688l-.144-.13-.144-.13L-1.033,4.3l-.141-.134-.142-.136-.139-.137-.137-.14-.137-.14-.135-.143L-2,3.321l-.133-.146-.122-.141-.071-.086-.066-.091-.06-.095-.054-.1-.049-.1-.041-.105-.036-.107-.028-.109-.022-.111-.015-.111L-2.7,1.9V1.792l.006-.114.013-.111.019-.111.026-.109.033-.109.039-.105.046-.1.052-.1.059-.1L-2.346.74l.07-.088L-2.2.568l.079-.079.085-.075.09-.069.094-.064.1-.057.1-.052.1-.045.107-.039.108-.032.11-.025.111-.018L-1,0l.111,0Z" transform="translate(6.949 0.003)" fill="#fff" fill-rule="evenodd"/></g><g transform="translate(342.963 147.121)"><path d="M0-2.718c0-11.89,5.152-21.543,17.042-21.543H71.133c11.89,0,16.909,9.653,16.909,21.543V20.024c0,11.89-5.019,21.543-16.909,21.543H52.99L40.154,60.546s-3.269,4.868-6.531,4.364c-3.768-.584-3.173-6.966-3.173-6.966l-.825-16.377H17.042C5.152,41.567,0,31.914,0,20.024Z" transform="translate(0 24.261)" fill="#08bdba" fill-rule="evenodd"/></g><g transform="translate(360.176 165.197)"><path d="M-1.311,0-1.2,0l.112.006.115.009.116.014.115.015.118.02L-.5.09l.116.027.116.031L-.155.18-.04.219l.116.04L.192.3.3.351.417.4.53.462.64.521.749.585.856.652.962.723l.1.075.1.078.1.082.1.084.095.088.091.09.089.092.088.1.085.1.081.1.081.1.077.105.072.109.072.11.088.143.084.143.081.146.076.146.073.147.066.148.065.149.063.148.057.149L2.9,3.5l.052.15L3,3.806l.044.15.041.15.039.152.036.15.033.15.03.15.028.15.024.149.024.15.02.15.018.149.014.148.014.149.011.148.011.147.006.148.007.148,0,.144v.437l0,.143,0,.143-.006.143L3.385,7.5l-.008.143-.011.14-.009.141-.009.139L3.334,8.2l-.027.271-.031.272-.033.269-.037.263-.037.26-.039.257-.04.252-.041.247-.043.243L2.926,11l-.027.134-.041.133L2.81,11.4l-.057.123-.067.12-.075.115-.085.108-.091.1-.1.1-.105.086-.112.078L2,12.3l-.123.062-.127.052-.129.043-.134.032-.135.021-.136.013-.137,0-.137-.008-.135-.019-.135-.028L.54,12.426l-.128-.049-.123-.057-.12-.066-.115-.076-.109-.084L-.155,12l-.1-.1L-.337,11.8l-.078-.111-.071-.118-.06-.123L-.6,11.318l-.043-.129-.033-.134-.02-.135-.013-.136v-.137l.007-.136.019-.136L-.6,9.915l.039-.228.037-.23.037-.23L-.453,9l.032-.23.031-.227.028-.228.025-.225.024-.228L-.3,7.751-.3,7.64l.008-.11.007-.109.007-.11,0-.109,0-.109,0-.107,0-.107V6.564l0-.1,0-.1,0-.1-.006-.1-.008-.1-.009-.1-.009-.1-.009-.1-.013-.095-.014-.092-.015-.091L-.374,5.4l-.018-.09-.02-.088-.021-.086-.02-.085-.024-.084L-.5,4.884-.528,4.8l-.026-.081-.03-.078-.03-.077L-.645,4.49l-.033-.075-.034-.075-.034-.072L-.785,4.2l-.039-.071-.04-.069L-.905,3.99l-.021-.033-.021-.031L-.968,3.9l-.02-.025-.018-.022-.018-.021-.017-.017L-1.056,3.8l-.015-.014-.014-.013L-1.1,3.756l-.012-.009-.012-.009-.012-.007-.008-.006-.009-.007-.009,0-.009-.006-.008,0-.009,0-.009,0-.008,0-.011,0-.011,0-.012,0-.011,0-.013,0-.014,0-.014,0h-.017l-.019,0h-.136l-.027,0-.03,0-.03,0-.034,0-.033,0-.034.006-.036.007-.039.007-.038.008-.04.011-.043.012-.041.012-.043.012-.046.014-.046.015-.045.017-.047.018-.049.018-.05.019-.05.02-.049.022-.051.022-.047.021-.11.052-.105.053-.109.059-.109.062-.11.064-.11.067-.111.07-.111.073-.111.077-.11.077-.11.081-.11.083-.108.084-.107.085-.105.086-.1.086-.1.088-.1.089-.1.09-.095.086-.091.089-.089.086-.085.086-.082.085-.078.084-.073.082-.071.078-.066.076-.06.073-.056.07-.052.065-.046.06-.039.056-.039.054-.062.095-.066.1-.065.1-.064.1-.063.1-.062.1-.062.1-.062.1-.057.105-.059.105-.057.108-.058.108-.056.108-.053.109-.054.109-.053.109-.051.111-.052.11-.05.112-.05.111-.049.114-.049.114-.045.114-.046.115-.046.116L-6.9,9.3l-.043.117-.044.116-.04.118-.04.117-.04.118-.039.12-.038.12-.037.12-.037.121-.037.121-.033.121-.033.122-.034.122-.032.122-.031.123-.031.124-.028.123-.031.124-.027.124-.026.127-.026.124-.025.127-.025.125-.024.123-.045.258-.043.255-.038.257-.034.257-.033.259-.027.259-.025.26-.024.262-.019.262-.017.263-.013.263-.011.263-.006.264,0,.264v.263l0,.265,0,.265.009.264.011.264.014.264.014.263.019.264.022.263.025.262.026.262.032.26.031.26.036.259.038.257.04.258.043.256.045.255.047.253.05.252.052.25.054.25.057.246.059.246.06.244.022.082.021.082.024.082.025.081.024.079.025.078.026.078.025.077.027.076L-7,23.1l.028.072.028.072.03.073.028.07.031.07.031.069.03.067.033.066.031.065.033.064.034.064.032.063.034.06.034.062.034.058.034.058.036.058.037.056.036.056.036.054.037.053.038.052.038.051.037.05.038.05.039.046.038.047.039.046.039.044.038.045.04.041.04.043.04.04.039.04.04.038.04.038.04.037.041.036.04.034.041.033.04.033.041.032.043.031.04.03.041.028.043.028.041.027.041.026.044.025.041.025.041.024.041.024.044.021.043.02.044.02.043.019.043.019.044.019.043.015.045.017.043.015.045.014.044.014.046.013.045.011.045.012.045.011.046.009.047.009.045.007.047.007.047.007.047.006.047.006.05,0,.049,0,.05,0h.2l.052,0,.052,0,.053,0,.053-.006.056-.006.054-.007.054-.007.057-.008.056-.011.059-.012.057-.011.059-.014.059-.014.059-.017.062-.017.062-.018.062-.019.063-.02.064-.021.064-.024.064-.025.065-.026.066-.026.066-.03.067-.03.069-.031.069-.034.069-.033.067-.036.072-.038.071-.038.071-.04.072-.043.073-.043.072-.045.073-.047.084-.053.117-.071.122-.062.127-.052.13-.041.134-.032.135-.022.137-.013h.135l.139.008.135.019.134.027.131.038.129.049.124.058.12.066.115.076.108.084.1.091.094.1.089.105.078.112.071.117.059.122.052.128.044.13.032.134.021.134.013.136V26.6l-.007.136-.019.136-.028.134-.038.133-.049.128-.057.123-.067.12-.076.115-.083.108-.091.1-.1.1-.107.086-.111.078-.1.067L.4,28.233.286,28.3l-.112.066-.114.066-.112.063-.112.063-.112.059-.114.059-.114.056-.114.054-.115.052-.114.051-.115.05-.115.047-.114.044-.115.044-.116.041-.114.04-.117.038-.116.036-.115.034L-2,29.3l-.116.03-.115.028-.116.026-.116.025-.115.021-.117.021-.116.019-.115.017-.117.014-.116.012-.115.011-.115.008-.116.007-.115,0-.115,0h-.231l-.115,0-.112,0-.115-.008-.112-.008-.114-.012-.111-.014-.112-.015-.112-.018-.11-.019-.11-.021L-5.2,29.4l-.11-.026-.108-.026-.11-.03-.105-.031-.107-.033-.108-.036-.105-.036-.1-.038-.105-.04-.1-.043-.1-.044-.1-.045-.1-.047-.1-.05-.1-.05-.1-.052-.1-.054-.1-.056-.1-.057-.094-.058-.092-.06-.091-.062-.091-.064-.09-.065-.089-.066-.089-.066-.085-.069-.085-.071-.084-.072-.084-.072-.083-.076-.081-.075-.082-.078-.078-.078-.078-.079-.076-.081-.077-.082-.075-.084-.073-.084-.071-.085-.072-.086-.069-.088-.071-.089-.066-.091-.066-.09-.067-.091-.064-.095-.064-.094-.063-.095-.06-.1-.059-.1-.059-.1-.058-.1-.057-.1-.056-.1-.054-.1-.054-.1-.052-.105-.052-.1-.05-.107-.05-.107-.046-.107-.047-.108-.046-.11-.044-.109-.044-.111-.041-.111-.041-.114-.039-.114-.04-.112-.038-.116-.037-.116-.036-.115-.036-.117-.033-.118-.032-.12-.032-.118-.07-.281-.067-.282L-11,22.38l-.062-.285-.06-.288-.058-.288-.054-.289-.051-.291-.049-.294-.045-.294-.044-.295-.04-.295-.037-.3-.034-.3-.031-.3-.028-.3-.025-.3-.022-.3-.018-.3-.015-.3-.013-.3-.008-.3-.006-.3,0-.305v-.305l0-.305.007-.307.012-.3.015-.307.018-.305.024-.305.026-.307.03-.305.034-.3.037-.307.043-.3.044-.3.05-.3.054-.3.027-.154.028-.15.031-.152.032-.149.032-.15.034-.15.034-.15.036-.149.038-.148.037-.15.039-.148.039-.148.041-.148.043-.149.044-.147.044-.147.045-.148.046-.146.049-.147.049-.144.051-.147.051-.144.052-.143.053-.146.056-.143.056-.143.057-.143.058-.142.06-.141.062-.143.062-.141.063-.14.065-.141.066-.14.065-.139.069-.139.07-.139.07-.137.073-.136.073-.136.075-.136.076-.135.077-.133L-9,5.233l.079-.133.083-.133.082-.131.084-.13.085-.131.09-.135.077-.11.083-.116L-8.25,4.1l.09-.116.095-.115.1-.117.1-.117.105-.118.108-.118.111-.12.115-.118.12-.121.121-.12.127-.121.128-.12.13-.12.136-.121.137-.118.14-.118.143-.118.146-.116.149-.116.152-.115.155-.111.156-.112.16-.109.162-.108L-5,1.19l.167-.1.169-.1.173-.1L-4.315.8l.178-.09L-3.96.623l.095-.044.094-.041L-3.679.5-3.586.46l.095-.039L-3.4.386-3.3.35l.1-.034.1-.032.1-.032.1-.028.1-.028.1-.026.1-.026.1-.022L-2.4.1l.105-.019.1-.018.108-.015.107-.014L-1.865.02l.109-.009L-1.645,0l.111,0h.223Z" transform="translate(11.704 0.001)" fill="#fff" fill-rule="evenodd"/></g><g transform="translate(377.504 167.641)"><path d="M-1.167,0l.137,0,.136.007.139.008.137.012L-.48.046l.137.017.137.019L-.068.1.07.13.207.157.343.188.48.221.616.258.751.3.869.335.992.378l.12.052.115.062L1.338.56l.107.078.1.083.094.091.088.1.082.1.071.109.065.114L2,1.353l.047.121.039.125.028.128.022.129.012.129v.131l-.007.13-.017.13L2.1,2.506l-.037.125-.043.123-.052.12-.06.116-.07.111-.076.105-.084.1L1.589,3.4l-.1.088-.1.081-.109.072-.114.064-.117.057L.926,3.81.8,3.849l-.127.03L.543,3.9l-.129.012H.284L.152,3.906.022,3.89l-.128-.026-.125-.036L-.311,3.8l-.062-.019-.063-.015L-.5,3.753-.562,3.74l-.065-.014-.065-.012L-.757,3.7l-.067-.008-.069-.009-.066-.006-.07-.006-.069,0-.07,0h-.215l-.072,0-.075,0-.073,0-.076,0-.072.006-.076.009L-1.9,3.7l-.077.012-.076.013-.077.013-.077.014-.078.017-.079.017-.077.02-.078.019-.078.021-.078.022-.081.024-.077.025-.079.027-.078.026L-3.071,4l-.079.03-.078.032-.079.032-.077.033-.077.036L-3.54,4.2l-.077.038-.078.038-.076.039-.077.041-.076.04L-4,4.437l-.075.043-.076.045-.073.045-.073.046-.072.049-.072.047-.072.05-.07.05-.07.052-.07.052-.069.053-.067.054-.066.054-.065.054-.065.056-.066.058-.062.057-.062.058-.062.059-.062.059-.059.06-.057.06-.057.063-.056.06-.054.063L-5.7,5.85l-.053.063-.052.063-.05.065-.047.065-.047.065L-6,6.236l-.045.064-.044.066-.041.066-.041.066-.039.066-.038.067-.037.066-.036.066-.036.067-.031.066-.032.067-.03.067-.027.067-.028.067-.025.066-.025.069-.021.066-.022.067-.019.067-.019.066-.018.067-.014.066-.014.066-.013.066-.012.067-.009.066-.009.067-.006.066-.007.066,0,.066,0,.067v.2l0,.066,0,.067.006.067.007.067.009.066.009.069.013.069.014.067.014.069.017.069.02.067.019.067.021.065.024.066.026.067.027.069.032.07.032.07.034.071.038.073.039.073.041.073.044.076.045.075.049.077.05.076.052.078.053.077.054.078.058.079.059.078.059.079.062.079.064.081.063.078.135.162.137.161.14.163.141.16.095.109.1.105.1.105.1.105.1.105.1.105.105.107.1.1.22.214.223.215.226.215.232.218.233.22.259.244.278.268.294.285.154.153.156.154.161.16.159.163.165.168.166.173.165.176.167.179.169.184.167.187.167.189.166.193.166.2.166.2.161.2.162.206.157.208.153.207.078.111.077.107.073.109.076.109.072.109.071.109.071.112.07.112.07.111.066.115.066.115.064.114.063.116.063.117.06.118.06.118.054.12.056.121.054.122.052.122.05.123.046.124.046.128.043.127.044.129.038.129.034.131.034.133.032.134.026.135.025.136.02.139.018.14.014.141.008.142.007.143v.144l0,.146-.007.147-.012.148-.018.147L2.408,23l-.028.149-.034.149-.039.148-.044.148-.051.148-.057.144-.063.144-.069.143-.072.14-.081.139-.084.135-.09.134-.094.129-.1.127L1.4,25.1l-.109.12-.112.117-.118.111-.122.11-.124.105-.129.1-.133.1-.136.095-.14.092-.142.09-.147.085-.149.083-.155.079-.156.077-.159.075-.163.072-.166.067-.172.066-.173.064-.194.066-.194.062-.2.059-.2.053-.2.05-.2.046-.2.041-.2.038-.2.034-.2.031-.2.027-.194.024-.194.02-.193.018-.2.014-.179.009-.13,0-.13-.007-.13-.017-.129-.024-.125-.034-.123-.044L-5.3,27.23l-.116-.059-.112-.067-.1-.076-.1-.084-.095-.09-.088-.1-.081-.1-.075-.109-.064-.112-.057-.118-.049-.121-.039-.124-.031-.128-.021-.128-.013-.131,0-.13.006-.13.015-.13.025-.128.034-.127.043-.123.052-.121.059-.116.07-.111.076-.107.083-.1.09-.095.1-.088.1-.082.11-.072.111-.065.118-.057.121-.049.125-.039.127-.031.129-.021.129-.013.152-.009.137-.009.137-.012.134-.015.135-.015.134-.019.133-.02.13-.022.129-.026.13-.027.127-.03.127-.032.123-.034.123-.037.122-.038.121-.043.105-.039.1-.039.1-.04.091-.039.086-.04.079-.04.076-.039.07-.038L-1.762,23l.06-.038.056-.037.051-.036.046-.034.041-.033.037-.032.033-.03.032-.03.026-.028.025-.025.02-.026.019-.022.015-.021.013-.021.013-.02.012-.019.009-.019.009-.018.006-.017.007-.018.006-.019.007-.019,0-.02,0-.02.006-.022,0-.022,0-.026,0-.026v-.13l0-.039,0-.039,0-.044-.008-.045-.008-.046-.009-.05-.011-.051-.014-.056-.017-.053-.017-.059-.018-.06-.022-.06-.022-.063-.025-.065L-1.4,21.38l-.03-.069-.03-.067-.032-.07L-1.53,21.1l-.036-.071-.037-.073-.04-.075-.041-.076-.043-.078-.045-.076-.045-.079-.049-.077-.05-.081-.051-.079-.052-.081-.053-.082-.057-.079-.054-.083-.058-.082-.057-.079-.124-.168-.125-.166-.129-.166-.135-.165-.135-.166-.139-.166-.141-.163-.144-.163-.143-.16-.147-.161-.146-.157-.148-.155-.147-.153-.147-.152-.146-.148-.143-.144-.144-.142-.139-.137-.277-.268-.262-.251-.249-.234-.231-.219-.238-.224-.239-.228-.244-.233-.239-.237L-6.922,15l-.123-.122-.122-.127-.122-.125-.121-.128-.122-.131-.122-.133L-7.77,14.1l-.162-.184-.163-.188-.163-.2-.163-.2-.085-.107-.084-.105-.083-.107-.083-.109L-8.84,12.8l-.084-.114L-9,12.572l-.081-.118-.081-.118-.078-.122-.078-.123-.076-.127-.077-.128-.072-.131-.071-.134-.07-.136-.067-.137-.066-.142-.062-.143-.06-.147L-10,10.716l-.054-.153-.05-.154-.046-.156-.041-.149-.037-.148-.033-.148-.031-.148-.025-.148-.022-.149-.021-.148-.015-.148-.013-.148-.011-.147-.007-.148,0-.146V8.331l0-.144.007-.146.009-.146.013-.142.014-.143.018-.142.022-.142.024-.14.027-.14.028-.139.032-.137.034-.136.038-.136.04-.135.041-.134.045-.133.046-.13.05-.13.052-.129.053-.128.057-.125.058-.127.06-.123.062-.123.065-.122.066-.12.066-.12.071-.117.073-.116.072-.117.076-.112.076-.114.079-.111.082-.11.081-.109.084-.107L-8.6,3.6l.086-.1.086-.1.089-.1.092-.1.092-.1.094-.1.1-.1.1-.095.1-.095.1-.092.1-.092.1-.089.1-.089.1-.088.1-.085.105-.084L-6.944,2l.109-.081.108-.081.11-.079.112-.076.111-.076.114-.073.112-.072.116-.071.116-.07.117-.067.117-.066.12-.065.12-.064.12-.06.121-.06L-5.1.883l.122-.058.123-.054L-4.73.717-4.6.666l.125-.051.127-.047.125-.046L-4.1.477-3.97.434l.128-.041.129-.038.13-.038.13-.034.131-.036.13-.03.133-.03.133-.027.134-.026.133-.022.135-.021.134-.019.135-.018L-2.121.04l.136-.013L-1.85.016l.136-.007L-1.579,0l.139,0h.273Z" transform="translate(10.411 0.001)" fill="#fff" fill-rule="evenodd"/></g><g transform="translate(393.121 169.313)"><path d="M-.975,0l.129,0,.13,0,.129.008.13.009.13.012L-.2.052l.13.017L.062.087l.13.02L.322.13.45.156.579.185.708.213.836.245.965.28l.129.038.127.038L1.349.4l.124.045L1.6.49l.123.047.125.052.124.053L2.1.7l.122.058L2.344.82l.12.065.122.065.1.062L2.8,1.08l.1.076.1.082.094.089.085.1.078.1.071.105.064.11.056.116.046.118.04.122.031.124.021.125.014.127,0,.129-.006.127-.013.128-.021.125-.032.124-.039.121-.05.118-.054.115-.065.111-.072.1-.078.1-.086.1-.091.089-.1.082-.1.076-.109.066-.112.06L2.451,4.3,2.33,4.34l-.123.033L2.082,4.4l-.125.017-.129.008H1.7l-.128-.008L1.446,4.4,1.32,4.371,1.2,4.335l-.121-.044L.962,4.24l-.112-.06L.777,4.138.72,4.106.662,4.075.6,4.044l-.06-.027L.483,3.989l-.06-.026L.361,3.938.3,3.914.237,3.89.174,3.869.11,3.848l-.064-.02-.065-.019-.065-.018-.065-.017-.067-.015-.066-.013L-.35,3.732-.416,3.72l-.07-.012L-.555,3.7l-.069-.008-.07-.008-.07-.007-.07,0-.07,0-.07,0h-.285l-.071,0-.071,0-.072,0-.071.006-.072.007-.071.008-.072.008-.072.012-.07.011-.072.013-.07.013-.071.015-.07.015-.071.018-.069.018-.07.019-.069.019-.069.021L-2.6,3.9l-.067.022-.067.024-.066.026L-2.867,4l-.065.027L-3,4.054l-.064.027-.063.03-.062.031-.063.031-.062.032-.06.034-.06.032L-3.49,4.3l-.058.037-.057.036-.057.037-.053.038-.054.037-.052.039-.052.04-.053.039-.05.04-.047.041-.049.041-.047.043-.045.043-.045.044-.044.043-.043.045-.04.044-.04.046-.038.045-.039.047-.036.045-.036.047-.033.047-.034.046-.031.047-.031.049-.03.049-.027.05-.027.047-.027.05-.024.051-.024.05-.024.051-.02.051-.02.052-.02.051-.017.054-.018.052-.015.052-.014.056-.014.054-.012.054L-5,6.29l-.009.057-.008.057-.008.058-.006.059,0,.059,0,.062,0,.062v.125l0,.065,0,.064.006.069.006.066.009.07.011.07.011.071.014.075.015.073.017.075.02.079.011.038.012.038.009.038.013.038.013.039.015.039.014.038.015.039.015.038.015.04.019.039.015.033.041.085.041.079.044.081.047.081.051.083.053.082.056.082.06.084.06.084.065.085.067.085.07.085.072.085.075.086.077.086L-3.8,9.4l.082.089.084.085.084.089.086.089.089.088.089.086.186.18.184.176.075.067.072.067.076.065.077.069.079.069.081.066.083.069.082.066.178.142.182.14.187.142.192.143.2.144.2.148.416.3.212.154.214.157.218.161.22.165.218.168.218.172.112.09.108.091.11.09.11.092.109.095.109.1.108.1.109.1.107.1.108.1.105.1.1.107.1.108.1.111.1.111.1.116.1.117.1.12.1.122.094.124.092.128.094.13.088.131.086.135.085.137.082.142L3.268,16l.076.144.065.131.063.129.058.131.057.131.052.131.051.131.047.133.045.131.041.134.038.134L3.9,17.6l.034.134.028.133L3.988,18l.025.133.021.134.018.134.018.134.012.131.011.134.007.133.006.133v.263l0,.131,0,.13-.009.13-.012.128-.014.129-.017.129-.019.127L4,20.354l-.024.127-.027.124-.03.124-.031.122-.034.122-.036.122-.038.12-.041.12-.041.118-.046.116-.047.116L3.56,21.8l-.051.114-.054.112-.054.11-.056.111-.058.108-.062.109-.063.1-.064.107-.065.1-.067.1-.07.1-.071.1-.073.1-.073.1-.077.1-.076.094-.078.094-.082.092-.082.09-.082.089-.086.089-.086.086-.086.085-.089.082-.091.082-.091.082-.092.079-.094.077-.095.076-.1.076-.1.072-.1.071-.1.072-.1.069L.795,25l-.1.066-.1.064-.107.063-.1.06-.108.058-.109.058-.11.056-.11.054-.111.053-.112.05-.114.05-.114.046-.115.046-.116.043-.116.043-.118.04-.12.038-.117.038-.122.033-.118.034-.123.03-.121.03-.123.026-.123.026-.124.022-.124.021-.125.019-.125.018-.128.014-.127.012-.127.012-.128.007-.128.007-.129,0-.129,0h-.13l-.13,0-.129,0-.13-.008-.131-.008-.13-.012-.131-.015-.13-.017-.131-.018-.131-.021-.13-.025-.133-.026-.131-.028-.114-.028-.124-.032-.12-.044-.118-.051-.112-.058-.109-.066-.1-.073-.1-.082-.092-.089-.088-.094-.079-.1-.073-.1-.064-.11-.058-.115-.05-.117-.04-.122-.032-.123-.024-.127-.014-.127-.007-.127,0-.128.012-.128.021-.127.03-.124.038-.121.046-.12.056-.116.063-.11.07-.107.078-.1.085-.1.09-.089.1-.084.1-.076.109-.069.112-.062.115-.053.12-.045.123-.037.125-.027.125-.02.128-.009h.128l.128.007.127.017.124.026.083.019.065.013.069.014.066.012.065.012.066.008.066.008.066.008.066,0,.066.006.065,0,.066,0h.2l.066,0,.065,0,.066,0,.066-.007.064-.006.066-.008.065-.008.064-.011.065-.009.066-.013.064-.013.064-.014.065-.015.064-.015.063-.018.063-.019.064-.019.062-.02.062-.022.063-.021.062-.022.06-.024.062-.026.062-.027L-1.7,22.2l.059-.027.059-.03.057-.03.059-.031.057-.032.058-.031.056-.033.053-.034.057-.034.053-.037.053-.037.053-.037.053-.038.051-.038.051-.04.049-.039.05-.04.049-.043.047-.041.047-.043.045-.043.046-.044.043-.044.044-.045.043-.046.041-.045.04-.046.04-.047.038-.046.039-.047.034-.049.036-.049.034-.047.036-.05.032-.05.031-.05.031-.05.03-.051.03-.05L.1,20.538l.027-.051.025-.052.025-.051L.2,20.332l.024-.052.02-.052.02-.052.019-.052L.3,20.071l.018-.053.014-.053.015-.053.014-.053L.377,19.8l.011-.053L.4,19.7l.009-.053.007-.056.008-.053,0-.054,0-.054,0-.054,0-.057,0-.053v-.169l0-.056,0-.057,0-.058-.007-.057-.007-.058L.4,18.749l-.011-.058-.012-.06-.013-.059-.015-.059L.334,18.45l-.018-.062L.3,18.327l-.021-.063L.252,18.2l-.024-.064L.2,18.074l-.027-.065-.03-.065-.03-.065-.033-.065-.039-.075-.039-.07L-.036,17.6l-.044-.071-.044-.07-.049-.071-.049-.071-.052-.07-.053-.071-.057-.07-.058-.071-.06-.07-.06-.071-.065-.071-.066-.071-.066-.071-.071-.071L-.9,16.537l-.073-.071-.076-.071-.079-.071-.078-.071-.082-.072-.083-.071-.084-.071-.085-.071-.089-.072-.086-.07-.185-.147-.188-.143-.192-.146-.2-.147-.2-.147-.2-.148-.416-.3-.212-.154-.213-.157-.214-.159-.215-.162-.214-.166-.211-.168-.11-.089L-4.8,13.5l-.1-.089-.108-.092-.105-.091-.1-.094-.105-.095-.1-.095-.207-.2-.207-.2-.109-.105-.107-.107-.108-.11-.108-.11L-6.38,12l-.108-.115-.109-.12-.108-.121-.108-.123-.107-.125-.1-.129-.105-.133-.1-.136-.1-.14-.1-.141-.1-.144-.1-.149-.094-.153-.092-.156-.089-.16-.084-.163-.078-.162-.043-.09-.039-.088-.038-.086-.036-.089-.034-.089-.036-.09-.032-.092-.031-.091-.032-.092-.028-.1-.027-.095-.026-.1-.038-.147-.036-.15-.03-.149L-8.6,7.942l-.026-.149-.022-.148L-8.663,7.5l-.015-.148L-8.689,7.2-8.7,7.054l0-.147,0-.144,0-.146,0-.143.007-.143.011-.142.017-.143.017-.14.021-.14.025-.14.026-.139.03-.135.034-.135.034-.134.039-.134.041-.131.044-.129.049-.128.05-.128.051-.124.054-.124.058-.122.06-.121.062-.118.065-.118.066-.114.07-.115.071-.112.073-.109.073-.108.079-.108.078-.1.081-.1.084-.1.083-.1.086-.1.088-.095.091-.095.091-.091.092-.091.094-.088.1-.086.1-.085.1-.083.1-.079.1-.079.1-.078.1-.075.105-.073.105-.071.107-.07.108-.069.109-.067.111-.064.11-.063.111-.06.112-.059.115-.057L-4.7.8l.116-.054.116-.052.116-.05L-4.229.6l.12-.046.117-.045L-3.87.464l.118-.041.123-.039.12-.037.124-.036.122-.033.124-.032.123-.03L-2.89.188l.125-.026.125-.024.125-.022L-2.385.1l.125-.02.127-.017L-2,.046l.127-.013.129-.012.128-.007.128-.008.129,0,.129,0h.259Z" transform="translate(8.704 0.001)" fill="#fff" fill-rule="evenodd"/></g><g transform="translate(199.709 336.658)"><path d="M-12.638,0S-27.252,4.5-29.25,23.784c-5.811,56.146-3.7,82.84-10,93.983-1.326,2.345-61.38-6.213-62.016-4.55-1.781,4.665-13.427,23.93-11.249,24.556,6.84,1.964,86.927,24.023,104.034,7.836,15.753-14.9,13.577-44.616,10-60.233C-3.021,65.527,10.11,1.187-12.638,0" transform="translate(112.788)" fill="#0f9794" fill-rule="evenodd"/></g><g transform="translate(273.48 321.49)"><path d="M-17.454-20.679c-15.235-50.6-60.324-160.443-60.324-160.443l-24.607-3.265c-3.095-2.382-34.058,21.883-34.058,21.883s-2.622,14.729-5.126,29.4c-2.291,13.427-15.35,27.364-14.12,34.506,2.856,16.561,23.239,20.552,23.239,20.552,3.612,29.152,6.417,46.579,10.346,61.511" transform="translate(155.77 184.552)" fill="#08bdba"/></g><g transform="translate(306.932 325.143)"><path d="M-5.263,0S-12.848,16.807-9.1,41.269c1.6,10.415,13.833,52.689,16.723,62.867,6.265,22.034-4.085,22.479-25.971,22.619-3.094.021-25.76-2.341-26.217-.42-1.277,5.388-5.872,30.841,2.544,32.7,10.285,2.277,63.925,8.889,79.441-11.127,14.287-18.428,8.726-51.1,3.342-67.97C33.916,58.5,17.929-1.45-5.263,0" transform="translate(46.97 0.029)" fill="#0f9794" fill-rule="evenodd"/></g><g transform="translate(305.096 450.617)"><path d="M-.588,0C2.525-.039,5.531,7.433,6.126,16.693S4.683,33.493,1.57,33.532-4.547,26.1-5.144,16.84-3.7.039-.588,0" transform="translate(5.247 0)" fill="#0e6462" fill-rule="evenodd"/></g><g transform="translate(267.898 455.569)"><path d="M-6-1.168s-12.389-2.907-22.246-8.76c-3.024-1.8-2.585,1.855-2.3,2.261,1.475,2.124,8.08,6.737,7.458,7.028-1.3.61-15.963-3.269-20.863-5.22-.494-.2-5.728-2.5-6.05-1.743-.755,1.772,1.887,3.266,3.123,3.942C-42.685-1.369-28.874,3.555-29.6,3.4-30.908,3.12-42.206,1.214-46.481.294-46.76.236-52.8-1.069-53.013-.292c-.424,1.583,4.06,3.131,5.124,3.423C-43.706,4.284-32.385,7.57-30.955,8c.6.179-4.395-.09-5.782-.182-4.3-.289-8.57-1.277-12.868-1.424-.842-.028-3.7-.379-3.935,1.015-.15.91,1.957,1.747,2.537,1.958,3.615,1.315,29.492,5.13,37.029,3.855,2.9-.49,7.576,1.073,7.576,1.073S-.764,3.44-6-1.168" transform="translate(53.548 10.422)" fill="#e5cbde" fill-rule="evenodd"/></g><g transform="translate(220.432 205.396)"><path d="M-7.719-1.293s-18.71-3.552-27.621,8.118-6.882,27.4-20.581,32.981S-74.248,72-61.026,80s-2.8,22.72-2.8,22.72-11.949,11.67,2.8,26.385a111.1,111.1,0,0,0,25.685,10.964s-10.738-10.473-7.542-23.657c0,0,1.15,21.937,21.454,23.657s33.557-12.487,33.557-12.487l59.345-14.448s34.554-9,34.6-32.961S82.837,59.087,78.4,41.835,72.88,7.628,53.638,2.152,11.054-23.619-7.719-1.293" transform="translate(68.893 11.542)" fill="#095150"/></g><g transform="translate(273.562 268.522)"><path d="M-6.7-6.846-8.4-52.639c-4.6-9.782-31.525-10.3-40.521-5.5-8.328,4.444-12.629,15-10.138,24.88l22.24,56.934c3.238,11.56,17.427,8.376,22.833,1.049C-.075,5.867-5.947-5.631-6.7-6.846" transform="translate(59.764 61.095)" fill="#dcbcd4"/></g><g transform="translate(246.444 280.48)"><path d="M-1.9-2.414-6.09-20.749s-8.124-3.758-10.517,5.081S-9.612.2-1.9-2.414" transform="translate(16.986 21.543)" fill="#e5cbde"/></g><g transform="translate(251.828 219.856)"><path d="M0-7.1c4.981,34.882,9.08,57.929,34.11,57.19S91,20.555,90.642-9.786,69.709-64.121,44.679-63.378-.355-37.443,0-7.1" transform="translate(0.005 63.395)" fill="#e5cbde"/></g><g transform="translate(307.914 412.411)"><path d="M0,0S18.694,15.469,43.128,7.915c0,0-25.446,21.41-43.128-7.915" fill="#0f9794" fill-rule="evenodd"/></g><g transform="translate(293.76 285.941)"><path d="M-2.915-.66C-.433,4.406-3.4,10.95-9.533,13.955s-13.12,1.332-15.6-3.734.482-11.61,6.618-14.614S-5.395-5.727-2.915-.66" transform="translate(26.012 5.887)" fill="#dcbcd4" fill-rule="evenodd"/></g></g></g><g transform="translate(251.828 219.855)"><g clip-path="url(#c)"><g transform="translate(-5.725 69.08)"><path d="M-2.85-2.143c-2.821,4.885-9.9,6.077-15.821,2.66S-27.1-9.628-24.277-14.514s9.9-6.077,15.821-2.661S-.03-7.029-2.85-2.143" transform="translate(25.435 19.124)" fill="#dcbcd4" fill-rule="evenodd"/></g></g></g><g transform="translate(0 0)"><g clip-path="url(#b)"><g transform="translate(258.144 216.854)"><path d="M0-3.842s5.851-10.455,15.417,0S20.538,23.3,43.311,26.118,51.816,50.686,67.672,49.8l1.723,37.228S111.027,28.793,89.424-5.057,15.1-49.308,0-3.842" transform="translate(0 34.291)" fill="#095150"/></g><g transform="translate(319.621 282.571)"><path d="M0-2.479,7.754-21.232s10.525-4,12.215,4.955S9.109.018,0-2.479" transform="translate(0 22.121)" fill="#e5cbde"/></g><path d="M220.255-132.328H337.128v11.421H220.255Z" transform="translate(-24.679 606.793)" fill="#8bdedc" fill-rule="evenodd"/><g transform="translate(97.574 357.011)"><path d="M-19.288-15.978-32.865-142.6l-139.272,9.7,21.62,116.925Z" transform="translate(172.137 142.602)" fill="#8bdedc" fill-rule="evenodd"/></g><g transform="translate(90.024 357.128)"><path d="M-19.131-16.207l-12.92-128.438L-170.737-134.7l20.972,118.593Z" transform="translate(170.737 144.645)" fill="#08bdba" fill-rule="evenodd"/></g><g transform="translate(433.578 194.936)"><path d="M-2.531-19.923s-28.56-13.75-10.152-30.846-18.523-29.212-7.977-46.694,22.83-9.456,24.82-20.96S-8.572-138.729.93-155.515,21.5-179.58,35.226-177.44s-4.162,36.116,9.92,42.884S57.309-106.065,35.8-87.177s12.981,30.925-7.262,43.953-31.065,23.3-31.065,23.3" transform="translate(22.593 177.805)" fill="#08bdba" fill-rule="evenodd"/></g><g transform="translate(372.012 271.372)"><path d="M-6.929-14.816s20-18.761,4.236-26.482,10.725-27.658.841-37.951-18.251-.612-21.027-8.817.464-19.936-5.787-31.918c-8.161-15.637-22.89-15.431-31.706-4.261-7.16,9.074,14.682,26.482,4.819,35.724s-6.011,25.267,12.293,33.459S-49.62-27.7-32.92-23.612s25.991,8.8,25.991,8.8" transform="translate(61.843 132.224)" fill="#08bdba" fill-rule="evenodd"/></g><g transform="translate(434.181 219.09)"><path d="M-6.061-.006-5.7.117l.328.2.279.258.223.311.149.35.075.374,0,.382-.084.372-.221.657-.219.656-.22.657-.215.658-.213.657-.212.661-.211.661-.208.661-.207.662-.206.663-.2.663-.2.664-.2.665-.2.665-.2.667-.2.668-.194.668-.192.669-.189.67-.189.671-.186.67-.186.671-.184.672-.184.674-.18.674-.18.674-.179.675-.176.676-.176.676-.173.676-.173.678-.172.678-.17.677-.169.68-.168.678-.167.681-.165.681-.165.682-.163.682-.16.682-.162.682-.16.684-.159.682-.159.684-.155.684-.156.684-.154.685-.154.685-.153.687-.152.687-.3,1.375-.3,1.375-.3,1.377-.291,1.378-.287,1.379-.287,1.379-.283,1.38-.282,1.383-.278,1.383-.277,1.383-.276,1.384-.272,1.384-.271,1.385-.271,1.385-.27,1.385-.535,2.772-.534,2.772-.533,2.77L-20.24,67.8l-.534,2.768-.268,1.382-.27,1.382-.271,1.382-.271,1.378-.273,1.38-.276,1.377-.276,1.377-.279,1.376-.282,1.373-.284,1.372-.285,1.371-.289,1.367-.291,1.369-.295,1.364-.819,3.767-.824,3.765-.825,3.767-.831,3.766-.83,3.765-.831,3.767-1.668,7.532-1.669,7.535-.835,3.766-.832,3.768-.833,3.768-.83,3.767-.828,3.77-.825,3.767-.823,3.771-.818,3.77-.41,1.885-.406,1.886-.406,1.885-.406,1.885-.4,1.885-.4,1.886-.4,1.886-.4,1.886-.4,1.884-.4,1.887-.4,1.886-.394,1.887-.392,1.886-.391,1.886-.39,1.887-.388,1.887-.385,1.887-.384,1.886-.381,1.887-.381,1.888-.378,1.887-.374,1.887-.375,1.888-.371,1.887-.369,1.888-.367,1.89-.365,1.887-.362,1.891-.11.365-.185.334-.25.289-.3.231-.346.162-.372.086-.381.008-.376-.073-.35-.147-.313-.218-.262-.279-.2-.327-.124-.36-.047-.379.032-.381.362-1.891.366-1.893.368-1.892.369-1.893.372-1.892.375-1.892.376-1.892.378-1.892.381-1.89.381-1.891.387-1.892.385-1.89.387-1.891.391-1.89.392-1.888.393-1.891.394-1.89.4-1.888.4-1.888.4-1.888.4-1.888.4-1.888.4-1.887.4-1.888.4-1.887.406-1.886.41-1.887.407-1.888.819-3.772.824-3.773.825-3.771.83-3.77.831-3.771.831-3.77.833-3.77.833-3.766,1.671-7.536,1.667-7.531.832-3.765.831-3.765.828-3.764.825-3.764.823-3.764.818-3.76.294-1.358.29-1.359.288-1.362.283-1.364.283-1.364.279-1.369.277-1.367.277-1.371.275-1.375.272-1.373.27-1.376.271-1.378.269-1.379.268-1.378.534-2.764.533-2.767.533-2.77.535-2.774.536-2.774.269-1.39.272-1.389.271-1.388.276-1.389.275-1.389.277-1.388.281-1.389.282-1.389.285-1.388.288-1.385.29-1.388.292-1.386.3-1.385.3-1.384.3-1.382.153-.693.154-.69.155-.693.156-.689.157-.69.157-.69.159-.69.159-.689.162-.688.163-.69.162-.688.165-.687.167-.688.166-.687.168-.688.169-.685.172-.687.172-.685.173-.683.174-.685.178-.684.176-.682.18-.683.18-.683.18-.682.184-.682.186-.682.186-.678.188-.681.189-.68.191-.68.193-.677.194-.678.2-.676.2-.677.2-.675.2-.676.2-.675.206-.674.206-.672.207-.671.211-.672.211-.671.214-.67.215-.669.217-.669.221-.668.22-.668.225-.667.223-.663.16-.347L-7.8.538l.287-.252L-7.184.1l.362-.112.381-.037Z" transform="translate(54.096 0.051)" fill="#095150" fill-rule="evenodd"/></g><g transform="translate(388.794 288.83)"><path d="M-.253,0,.061.059l.3.114L.63.336.87.543l.2.246.155.279.2.444.2.446.4.9.393.9.391.9.388.9.385.906.384.908.38.912.378.913.375.916.373.918.371.92.369.922.367.923.363.926.362.928.361.929.358.932.358.933.355.935.354.935.35.938.349.938.349.94.347.941.346.941.343.942.343.945.342.945.341.946.34.946.339.946.337.947.336.948.671,1.9.667,1.9.667,1.9.663,1.9.663,1.9L18.2,45.847l.661,1.89.661,1.886.662,1.881.663,1.877.333.936.333.935.334.934.334.932.335.931.336.929.336.925.337.926.938,2.563.94,2.563.941,2.564.942,2.566,1.887,5.129,1.89,5.128,1.892,5.132,1.89,5.131,1.89,5.134.944,2.569.944,2.569.941,2.57.94,2.572.939,2.571.936,2.573.935,2.574.933,2.574.931,2.576.928,2.577.926,2.579.925,2.577.92,2.582.916,2.582.915,2.583.456,1.292.455,1.294.455,1.293.453,1.294.452,1.293.451,1.294.078.309.022.316-.032.317-.086.307-.139.285-.185.259-.23.221-.262.179-.29.13-.309.078-.318.024-.315-.031-.307-.088-.287-.139-.258-.186-.223-.227-.179-.264-.13-.29-.45-1.293-.452-1.292-.452-1.29-.453-1.29-.453-1.289-.455-1.29L46.354,134l-.915-2.579-.92-2.575-.921-2.576-.925-2.575-.928-2.574-.929-2.573-.933-2.572-.934-2.57-.935-2.569-.939-2.57-.939-2.568-.941-2.569-.941-2.567L33.31,98l-1.89-5.132L29.53,87.735,27.64,82.6,25.75,77.475l-1.888-5.13-.944-2.566-.941-2.566-.941-2.566L20.1,62.082l-.339-.931-.339-.931-.336-.933-.337-.935-.335-.936-.336-.938-.333-.939-.334-.94-.665-1.881-.664-1.887-.662-1.89-.661-1.891-1.322-3.789-.661-1.894-.664-1.9-.663-1.894-.667-1.892-.669-1.892-.335-.944-.336-.944L9.1,30.964l-.339-.941-.339-.942-.34-.939L7.743,27.2,7.4,26.265l-.343-.936-.346-.935-.346-.933-.348-.932L5.669,21.6l-.35-.929-.352-.927-.355-.925-.354-.923L3.9,16.971l-.359-.919-.361-.916-.363-.916-.365-.912-.366-.91-.371-.908-.371-.906-.374-.9L.6,8.781l-.379-.9-.38-.9L-.546,6.1-.93,5.21l-.388-.884-.391-.883L-1.906,3l-.2-.44-.1-.3-.051-.314,0-.318.059-.313.114-.3.163-.273.208-.24.246-.2L-1.186.15l.3-.1.314-.051Z" transform="translate(2.259 0.005)" fill="#095150" fill-rule="evenodd"/></g><g transform="translate(391.771 414.988)"><path d="M-9.1,0H-81.25V39.907c0,12.675,16.454,30.267,16.454,30.267l37.957.8S-9.1,53.122-9.1,39.907Z" transform="translate(81.25)" fill="#dcbcd4" fill-rule="evenodd"/></g><path d="M26.6,1.265c2.445,1.1,4.173,3.773,5.986,6.7S36.271,14.1,36,17.115c-.274,2.993-2.7,5.8-5.375,7.651-2.7,1.855-5.67,2.761-8.81,4.131-3.119,1.37-6.407,3.2-9.063,2.55-2.635-.632-4.637-3.752-7.1-6.513S.25,19.75.018,17.052c-.253-2.7,2.171-5.712,3.9-8.831S6.658,1.834,8.871.633,14.456.275,17.723.464,24.152.169,26.6,1.265Z" transform="translate(151.683 442.098) rotate(-90)" fill="#8bdedc"/></g></g></g></g></svg>