<svg xmlns="http://www.w3.org/2000/svg" xmlns:xlink="http://www.w3.org/1999/xlink" width="294" height="294" viewBox="0 0 294 294"><defs><clipPath id="a"><rect width="242" height="229" transform="translate(-0.24 -0.187)" fill="#c72424" opacity="0.6"/></clipPath><clipPath id="b"><path d="M0-666.665H340.47V-326.2H0Z" transform="translate(0 666.665)"/></clipPath></defs><g transform="translate(-1000 -4671.813)"><circle cx="147" cy="147" r="147" transform="translate(1000 4671.813)" fill="#fff" opacity="0.5"/><g transform="translate(1026.24 4704.999)" clip-path="url(#a)"><g transform="translate(-51.811 -59.499)"><g transform="translate(0 0)"><g clip-path="url(#b)"><g transform="translate(59.334 59.484)"><path d="M-109.267,0A114.049,114.049,0,0,1,4.781,114.048,114.049,114.049,0,0,1-109.267,228.1a114.05,114.05,0,0,1-114.048-114.05A114.048,114.048,0,0,1-109.267,0" transform="translate(223.315)" fill="#f6f5f6" fill-rule="evenodd"/></g><g transform="translate(85.483 108.121)"><g transform="translate(0 0)"><g transform="translate(0 0)"><path d="M-53.549-11.871a12.4,12.4,0,0,0-12.39-12.39H-97.051a12.4,12.4,0,0,0-12.39,12.39V1.209A12.4,12.4,0,0,0-97.051,13.6h10.435l7.383,10.916s1.879,2.8,3.755,2.511c2.168-.336,1.826-4.007,1.826-4.007l.474-9.419h7.238a12.4,12.4,0,0,0,12.39-12.39Z" transform="translate(109.441 24.463)" fill="#08bdba" fill-rule="evenodd"/><rect width="130" height="38" rx="19" transform="translate(0.088 0.191)" fill="#08bdba"/></g></g><text transform="translate(19.087 24.191)" fill="#fff" font-size="13" font-family="Montserrat-SemiBold, Montserrat" font-weight="600"><tspan x="0" y="0">Get in touch!</tspan></text></g></g></g><g transform="translate(0 0)"><g clip-path="url(#b)"><g transform="translate(214.538 101.189)"><g transform="translate(35.409)"><path d="M-11.055-87s-16.426-7.908-5.839-17.741-10.653-16.8-4.588-26.856,13.131-5.439,14.275-12.055-7.322-11.679-1.857-21.333S2.765-178.826,10.662-177.6s-2.394,20.772,5.706,24.665,7,16.387-5.378,27.25,7.466,17.787-4.177,25.28A132.019,132.019,0,0,0-11.055-87" transform="translate(22.593 177.805)" fill="#08bdba" fill-rule="evenodd"/></g><g transform="translate(0 43.963)"><path d="M-30.259-64.7s11.5-10.79,2.436-15.231,6.169-15.907.483-21.828-10.5-.352-12.093-5.071.267-11.466-3.328-18.357c-4.694-8.994-13.165-8.875-18.236-2.451-4.118,5.219,8.444,15.231,2.771,20.547s-3.457,14.533,7.07,19.244-3.657,15.737,5.947,18.088A76.325,76.325,0,0,1-30.259-64.7" transform="translate(61.843 132.224)" fill="#08bdba" fill-rule="evenodd"/></g><g transform="translate(35.756 13.892)"><path d="M-26.469-.025l.208.071.189.112.161.148.128.179.086.2.043.215,0,.22-.048.214-.127.378-.126.377-.127.378-.124.379-.123.378-.122.38-.121.38-.12.38-.119.381-.118.381-.117.381-.115.382-.115.383-.114.383-.112.383-.112.384-.112.384-.11.385-.109.385-.109.386-.107.385-.107.386-.106.387-.106.387-.1.387-.1.387-.1.388-.1.389-.1.389-.1.389-.1.39-.1.39-.1.389-.1.391-.1.39-.1.392-.095.392-.095.392-.094.392-.092.392-.093.392-.092.394-.091.392-.091.394-.089.394-.09.394-.089.394-.089.394-.088.395-.087.395-.174.791-.171.791-.17.792-.168.793-.165.793-.165.793-.163.794-.162.8-.16.8-.159.8-.159.8-.157.8-.156.8-.156.8-.155.8L-33.7,34.2l-.307,1.594-.306,1.593-.307,1.593-.307,1.592-.154.795-.155.795-.156.795-.156.793-.157.794-.159.792-.159.792-.161.791-.162.79-.163.789-.164.789-.166.786-.168.787-.17.784-.471,2.167-.474,2.165-.475,2.167-.478,2.166-.477,2.165-.478,2.167-.959,4.332-.96,4.334-.48,2.166-.479,2.167-.479,2.167-.477,2.167-.476,2.168-.475,2.167-.473,2.169-.471,2.168L-46,91.726l-.234,1.085-.234,1.084-.234,1.084-.232,1.084-.232,1.085-.231,1.085-.229,1.085-.229,1.083-.229,1.085-.227,1.085-.227,1.085-.225,1.085-.225,1.085-.224,1.085L-49.432,108l-.221,1.085-.221,1.085-.219,1.085-.219,1.086-.217,1.085-.215,1.085-.216,1.086-.213,1.085-.212,1.086-.211,1.087-.21,1.085-.208,1.087-.063.21-.106.192-.144.166-.174.133-.2.093-.214.05-.219,0-.217-.042-.2-.084-.18-.125-.15-.161-.114-.188-.071-.207-.027-.218.018-.219.208-1.087.21-1.089.212-1.088.212-1.089.214-1.088.216-1.088.217-1.088.217-1.088.219-1.087.219-1.087.223-1.088.221-1.087.223-1.087.225-1.087.225-1.086.226-1.087.227-1.087.227-1.086.229-1.086.23-1.086.23-1.086.231-1.086.232-1.085.232-1.086.233-1.085.234-1.085.236-1.085.234-1.086.471-2.169.474-2.17.475-2.169.477-2.168.478-2.169.478-2.168.479-2.168L-44,72.849l.961-4.334.959-4.331.479-2.165.478-2.165.476-2.165.475-2.165.473-2.165.471-2.163.169-.781.167-.782.165-.783.163-.784.163-.784.161-.787.159-.786.159-.789.158-.791.157-.79.155-.791.156-.793.155-.793.154-.793.307-1.59.306-1.591.306-1.593.308-1.6.308-1.6.155-.8.157-.8.156-.8.159-.8.158-.8.159-.8.161-.8.162-.8.164-.8.165-.8.167-.8.168-.8.171-.8.172-.8.174-.795.088-.4.089-.4.089-.4.09-.4.091-.4.091-.4.091-.4.091-.4.093-.4.094-.4.093-.4.095-.395.1-.4.1-.395.1-.4.1-.394.1-.395.1-.394.1-.393.1-.394.1-.394.1-.392.1-.393.1-.393.1-.392.106-.392.107-.392.107-.39.108-.392.109-.391.11-.391.111-.389.112-.39.113-.389.113-.389.115-.388.115-.389.116-.388.118-.387.118-.387.119-.386.121-.387.121-.386.123-.385.124-.385.125-.385.127-.384.127-.384.129-.383.128-.381.092-.2.131-.176.165-.145.192-.108.208-.065.219-.021Z" transform="translate(54.096 0.051)" fill="#095150" fill-rule="evenodd"/></g><g transform="translate(9.652 54.004)"><path d="M-1.105,0l.18.034L-.754.1-.6.191-.459.31l.116.142.089.161L-.14.868l.115.257L.2,1.639l.226.516.225.518.223.52.221.521.221.522.219.524.217.525.216.527.214.528.213.529.212.53.211.531.209.532L3.24,9l.208.535.206.536.206.537.2.538.2.538.2.539.2.539.2.541.2.541.2.541.2.542.2.543.2.543.2.544.2.544.195.544.194.545.193.545.386,1.091L7.6,20.915l.383,1.092.381,1.09.381,1.091.76,2.178.38,1.087.38,1.085.381,1.082.381,1.079.191.539.191.538.192.537.192.536.193.535.193.535.193.532.194.532.539,1.474.541,1.474.541,1.475.542,1.476,1.085,2.95,1.087,2.949L18,49.733l1.087,2.951,1.087,2.953.543,1.478.543,1.478.541,1.478.541,1.479.54,1.479.539,1.48.538,1.48.537,1.48.535,1.482.534,1.482.533,1.483.532,1.482.529,1.485.527,1.485.526,1.486.262.743.261.744.261.744.261.744.26.744.259.744.045.178.013.182-.018.182-.05.176-.08.164-.106.149-.132.127-.15.1-.167.075-.178.045-.183.014-.181-.018-.176-.05-.165-.08-.148-.107-.128-.131-.1-.152-.075-.167-.259-.744-.26-.743-.26-.742-.261-.742-.261-.742-.261-.742L25.7,77.07l-.526-1.483-.529-1.481-.53-1.482-.532-1.481-.534-1.48-.535-1.48L21.979,66.7l-.537-1.478L20.9,63.748l-.54-1.478-.54-1.477-.541-1.478-.541-1.476L18.2,56.362,17.112,53.41l-1.087-2.952-1.087-2.951-1.087-2.95-1.086-2.951-.543-1.476-.541-1.476-.541-1.476L10.6,35.7l-.195-.535-.195-.535-.193-.537-.194-.538-.193-.539-.193-.539-.191-.54L9.052,31.4,8.67,30.319l-.382-1.085-.381-1.087-.38-1.087L6.767,24.88l-.38-1.09L6,22.7l-.381-1.09L5.24,20.523l-.385-1.088-.193-.543-.193-.543-.194-.543-.195-.541-.195-.542-.2-.54-.2-.54L3.3,15.1l-.2-.539-.2-.538-.2-.537-.2-.536-.2-.535-.2-.535-.2-.533-.2-.532-.2-.531-.206-.53L1.077,9.23.87,8.7.661,8.176l-.21-.524L.24,7.128.027,6.606l-.213-.521L-.4,5.565l-.216-.518-.218-.515-.219-.515-.22-.513-.221-.511-.223-.509-.225-.508-.113-.253-.114-.253-.06-.173-.029-.18,0-.183.034-.18.065-.171.094-.157.12-.138L-1.8.173l.159-.089.173-.06.18-.029Z" transform="translate(2.259 0.005)" fill="#095150" fill-rule="evenodd"/></g><g transform="translate(11.364 126.563)"><path d="M-39.755,0h-41.5V22.952c0,7.29,9.464,17.408,9.464,17.408l21.831.458s10.2-10.266,10.2-17.866Z" transform="translate(81.25)" fill="#dcbcd4" fill-rule="evenodd"/></g></g><g transform="translate(92.613 182.904)"><path d="M220.255-132.328h67.22v6.569h-67.22Z" transform="translate(-159.547 199.881)" fill="#8bdedc" fill-rule="evenodd"/><g transform="translate(4.343)"><path d="M-84.226-69.775-92.035-142.6l-80.1,5.58,12.435,67.25Z" transform="translate(172.137 142.602)" fill="#8bdedc" fill-rule="evenodd"/></g><g transform="translate(0 0.067)"><path d="M-83.541-70.774l-7.431-73.871-79.765,5.719,12.062,68.209Z" transform="translate(170.737 144.645)" fill="#08bdba" fill-rule="evenodd"/></g><path d="M15.3.728c1.406.63,2.4,2.17,3.443,3.855S20.861,8.11,20.7,9.844s-1.552,3.334-3.091,4.4a29.021,29.021,0,0,1-5.067,2.376c-1.794.788-3.685,1.843-5.213,1.467s-2.667-2.158-4.085-3.746S.144,11.359.011,9.808,1.259,6.522,2.253,4.728,3.829,1.055,5.1.364s3.212-.206,5.091-.1S13.891.1,15.3.728Z" transform="translate(35.463 48.938) rotate(-90)" fill="#8bdedc"/></g></g></g></g></g></g></svg>