<svg xmlns="http://www.w3.org/2000/svg" xmlns:xlink="http://www.w3.org/1999/xlink" width="1920" height="660" viewBox="0 0 1920 660"><defs><clipPath id="a"><rect width="1920" height="660" transform="translate(0 4514)" fill="#08bdba"/></clipPath><linearGradient id="b" x1="0.24" y1="-0.127" x2="0.358" y2="0.891" gradientUnits="objectBoundingBox"><stop offset="0" stop-color="#53d8d6"/><stop offset="1" stop-color="#08bdba"/></linearGradient><linearGradient id="c" x1="0.844" y1="0.527" x2="0.09" y2="-0.03" gradientUnits="objectBoundingBox"><stop offset="0" stop-color="#08bdba"/><stop offset="1" stop-color="#3cf3f1"/></linearGradient></defs><g transform="translate(0 -4514)" clip-path="url(#a)"><g transform="translate(-66 723)"><path d="M387.4-45.844C430.8-26.39,461.474,21.123,493.648,73.125s65.47,108.868,60.607,162.367c-4.863,53.125-47.887,102.882-95.4,135.8-47.887,32.922-100.637,49.009-156.381,73.327-55.369,24.318-113.731,56.866-160.87,45.268C94.84,478.667,59.3,423.3,15.527,374.289s-95.774-92.033-99.889-139.92c-4.489-47.887,38.534-101.386,69.212-156.755S33.485-35.743,72.767-57.068s99.141-6.36,157.129-2.993S344-65.3,387.4-45.844Z" transform="translate(191.776 4045.933) rotate(-25)" fill="url(#b)"/><path d="M105.4-34.133c13.3,9.378,22.849,24.043,37.855,40.924,15.176,16.881,35.809,35.979,38.537,56.271,2.9,20.121-12.107,41.436-31.716,52.008s-43.823,10.4-66.843,19.439c-23.19,9.208-45.017,27.624-69.571,31.546-24.725,3.751-52.008-7.162-69.4-26.771C-72.963,119.5-80.124,90.856-81.147,63.232s4.092-54.224,16.54-75.71C-52.159-34.133-32.209-50.5-10.724-56.13c21.656-5.8,44.846-.682,65.138,3.922S91.927-43.512,105.4-34.133Z" transform="translate(534.963 4293.717)" fill="#41d2d0" opacity="0.22"/><path d="M208.606-44.967c20.458,14.347,27.631,47.824,49.949,79.175,22.318,31.617,59.514,61.374,67.75,95.647,8.236,34.008-12.222,72.532-39.853,106.009-27.366,33.742-61.639,62.436-99.9,70.141-38.259,7.971-80.5-4.782-123.81-16.473s-87.677-22.052-112.12-49.949-29.226-73.064-18.6-110.26,36.665-66.156,55-95.647C5.356,3.919,15.983-26.1,36.973-40.185c21.255-14.081,52.872-12.222,85.285-13.55C154.938-55.063,188.148-59.58,208.606-44.967Z" transform="matrix(0.07, 0.998, -0.998, 0.07, 1791.399, 3900.841)" opacity="0.56" fill="url(#c)"/></g></g></svg>