<svg xmlns="http://www.w3.org/2000/svg" xmlns:xlink="http://www.w3.org/1999/xlink" width="375" height="918" viewBox="0 0 375 918"><defs><clipPath id="a"><rect width="375" height="918" transform="translate(0 4892)" fill="#fff" stroke="#707070" stroke-width="1"/></clipPath><linearGradient id="b" x1="0.24" y1="-0.127" x2="0.358" y2="0.891" gradientUnits="objectBoundingBox"><stop offset="0" stop-color="#53d8d6"/><stop offset="1" stop-color="#08bdba"/></linearGradient><linearGradient id="c" x1="0.844" y1="0.527" x2="0.09" y2="-0.03" gradientUnits="objectBoundingBox"><stop offset="0" stop-color="#08bdba"/><stop offset="1" stop-color="#3cf3f1"/></linearGradient></defs><g transform="translate(0 -4892)" clip-path="url(#a)"><path d="M0,0H375V918H0Z" transform="translate(0 4892)" fill="#08bdba"/><path d="M123.19-58.414c19.11,8.566,32.618,29.488,46.785,52.386s28.829,47.939,26.687,71.5c-2.142,23.393-21.086,45.3-42.008,59.8-21.086,14.5-44.314,21.581-68.86,32.288-24.381,10.708-50.08,25.04-70.837,19.933-20.592-4.942-36.242-29.323-55.516-50.9S-82.732,86.061-84.544,64.975C-86.521,43.888-67.576,20.331-54.067-4.05s21.416-49.915,38.713-59.305,43.655-2.8,69.19-1.318S104.08-66.98,123.19-58.414Z" transform="translate(76.776 5009.933) rotate(-25)" fill="url(#b)"/><path d="M33.88-43.552c8.2,5.785,14.1,14.832,23.352,25.245C66.593-7.893,79.321,3.888,81,16.405c1.788,12.412-7.468,25.561-19.565,32.082S34.406,54.9,20.205,60.479C5.9,66.159-7.564,77.519-22.712,79.939c-15.252,2.314-32.082-4.418-42.812-16.515C-76.147,51.222-80.565,33.551-81.2,16.51s2.525-33.45,10.2-46.7c7.679-13.359,19.986-23.457,33.239-26.928C-24.395-60.7-10.089-57.542,2.428-54.7S25.57-49.337,33.88-43.552Z" transform="translate(133.274 5127.717)" fill="#41d2d0" opacity="0.22"/><path d="M64.811-50.31c10.023,7.029,13.538,23.43,24.472,38.79,10.934,15.49,29.158,30.069,33.193,46.861,4.035,16.662-5.988,35.536-19.525,51.937-13.407,16.531-30.2,30.59-48.943,34.365-18.744,3.905-39.441-2.343-60.659-8.07s-42.956-10.8-54.931-24.472S-75.9,53.3-70.694,35.08-52.731,2.668-43.749-11.781c8.982-14.579,14.188-29.288,24.472-36.187,10.413-6.9,25.9-5.988,41.784-6.639C38.517-55.257,54.788-57.47,64.811-50.31Z" transform="translate(292.377 5616.824) rotate(180)" opacity="0.56" fill="url(#c)"/></g></svg>