<svg xmlns="http://www.w3.org/2000/svg" xmlns:xlink="http://www.w3.org/1999/xlink" width="375" height="667" viewBox="0 0 375 667"><defs><clipPath id="a"><rect width="375" height="667" fill="#fff" stroke="#707070" stroke-width="1"/></clipPath><linearGradient id="b" x1="0.258" y1="0.156" x2="0.182" y2="0.717" gradientUnits="objectBoundingBox"><stop offset="0" stop-color="#fff"/><stop offset="1" stop-color="#f6f5f6"/></linearGradient><linearGradient id="c" x1="0.24" y1="-0.127" x2="0.358" y2="0.891" gradientUnits="objectBoundingBox"><stop offset="0" stop-color="#f6f5f6"/><stop offset="1" stop-color="#fefefe"/></linearGradient><linearGradient id="d" x1="0.844" y1="0.527" x2="0.09" y2="-0.03" gradientUnits="objectBoundingBox"><stop offset="0" stop-color="#f6f5f6"/><stop offset="1" stop-color="#f6f5f6"/></linearGradient></defs><g clip-path="url(#a)"><g transform="translate(-0.22)"><rect width="375" height="667" fill="#fff"/><path d="M39.775-51.241c8.206,5.755,11.084,19.183,20.036,31.759C68.763-6.8,83.684,5.137,86.988,18.885c3.3,13.641-4.9,29.095-15.986,42.523C60.024,74.943,46.276,86.453,30.93,89.543c-15.347,3.2-32.292-1.918-49.663-6.608S-53.9,74.09-63.708,62.9s-11.723-29.308-7.46-44.228S-56.461-7.865-49.107-19.695c7.354-11.936,11.617-23.979,20.036-29.628,8.526-5.648,21.208-4.9,34.21-5.435C18.247-55.291,31.569-57.1,39.775-51.241Z" transform="matrix(0.695, -0.719, 0.719, 0.695, 258.997, 536.385)" opacity="0.59" fill="url(#b)"/><path d="M-10.526-49.4c5.041,3.554,8.66,9.112,14.347,15.51,5.752,6.4,13.571,13.636,14.605,21.326,1.1,7.626-4.588,15.7-12.02,19.711S-10.2,11.089-18.927,14.515C-27.716,18-35.989,24.984-45.295,26.47c-9.371,1.422-19.711-2.714-26.3-10.146-6.527-7.5-9.241-18.354-9.629-28.823s1.551-20.551,6.269-28.694C-70.24-49.4-62.679-55.6-54.536-57.737c8.207-2.2,17-.259,24.687,1.486S-15.632-52.955-10.526-49.4Z" transform="translate(241.963 564.24)" fill="#f6f5f6" opacity="0.44"/><path d="M134.906-57.856c20.187,9.049,34.456,31.15,49.422,55.339s30.454,50.641,28.192,75.526c-2.262,24.711-22.275,47.856-44.376,63.17-22.275,15.314-46.812,22.8-72.741,34.108-25.755,11.311-52.9,26.451-74.83,21.057-21.753-5.221-38.285-30.976-58.646-53.773s-44.55-42.81-46.464-65.084C-86.624,50.212-66.611,25.326-52.342-.429s22.623-52.729,40.9-62.648,46.116-2.958,73.089-1.392S114.72-66.905,134.906-57.856Z" transform="translate(26.839 151.769) rotate(-25)" fill="url(#c)"/><path d="M27.559-51.695c7.32,5.133,9.886,17.111,17.871,28.328,7.985,11.312,21.294,21.959,24.24,34.222C72.617,23.023,65.3,36.807,55.411,48.784,45.62,60.857,33.357,71.123,19.669,73.88c-13.689,2.852-28.8-1.711-44.3-5.894S-56,60.1-64.745,50.115-75.2,23.973-71.4,10.665s13.118-23.67,19.678-34.222C-45.162-34.2-41.36-44.945-33.85-49.984c7.6-5.038,18.917-4.373,30.514-4.848C8.357-55.307,20.239-56.923,27.559-51.695Z" transform="matrix(0.07, 0.998, -0.998, 0.07, 348.399, 42.841)" opacity="0.56" fill="url(#d)"/></g></g></svg>