<svg xmlns="http://www.w3.org/2000/svg" xmlns:xlink="http://www.w3.org/1999/xlink" width="1920" height="1080" viewBox="0 0 1920 1080"><defs><style>.a{fill:#fff;stroke:#707070;}.b{clip-path:url(#a);}.c{fill:#08bdba;}.d{fill:url(#b);}.e{fill:#41d2d0;opacity:0.22;}.f{opacity:0.59;fill:url(#c);}.g{opacity:0.56;fill:url(#d);}</style><clipPath id="a"><rect class="a" width="1920" height="1080"/></clipPath><linearGradient id="b" x1="0.24" y1="-0.127" x2="0.358" y2="0.891" gradientUnits="objectBoundingBox"><stop offset="0" stop-color="#53d8d6"/><stop offset="1" stop-color="#08bdba"/></linearGradient><linearGradient id="c" x1="0.258" y1="0.156" x2="0.182" y2="0.717" gradientUnits="objectBoundingBox"><stop offset="0" stop-color="#08bdba"/><stop offset="1" stop-color="#21d1ce"/></linearGradient><linearGradient id="d" x1="0.844" y1="0.527" x2="0.09" y2="-0.03" gradientUnits="objectBoundingBox"><stop offset="0" stop-color="#08bdba"/><stop offset="1" stop-color="#3cf3f1"/></linearGradient></defs><g class="b"><g transform="translate(-0.311)"><rect class="c" width="1920" height="1080"/><path class="d" d="M669.39-32.429C738.71-1.354,787.712,74.539,839.1,157.6s104.578,173.9,96.809,259.353c-7.769,84.857-76.491,164.337-152.385,216.924-76.491,52.588-160.751,78.284-249.791,117.127-88.443,38.843-181.667,90.833-256.963,72.308-74.7-17.928-131.469-106.37-201.387-184.654S-77.595,491.655-84.168,415.164c-7.171-76.491,61.551-161.946,110.554-250.389S104.072-16.294,166.819-50.356s158.361-10.159,250.987-4.781S600.069-63.5,669.39-32.429Z" transform="translate(-34.07 323.349) rotate(-25)"/><path class="e" d="M105.4-34.133c13.3,9.378,22.849,24.043,37.855,40.924,15.176,16.881,35.809,35.979,38.537,56.271,2.9,20.121-12.107,41.436-31.716,52.008s-43.823,10.4-66.843,19.439c-23.19,9.208-45.017,27.624-69.571,31.546-24.725,3.751-52.008-7.162-69.4-26.771C-72.963,119.5-80.124,90.856-81.147,63.232s4.092-54.224,16.54-75.71C-52.159-34.133-32.209-50.5-10.724-56.13c21.656-5.8,44.846-.682,65.138,3.922S91.927-43.512,105.4-34.133Z" transform="translate(352.275 866.717)"/><path class="f" d="M111.13-48.589C124.514-39.2,129.208-17.3,143.809,3.21c14.6,20.685,38.936,40.153,44.324,62.576,5.388,22.249-8,47.453-26.073,69.355-17.9,22.075-40.327,40.848-65.357,45.889-25.03,5.215-52.668-3.129-81-10.777s-57.361-14.427-73.353-32.678-19.12-47.8-12.167-72.136S-45.831,22.156-33.837,2.862C-21.843-16.606-14.89-36.248-1.158-45.46c13.906-9.213,34.59-8,55.8-8.865C76.018-55.194,97.746-58.149,111.13-48.589Z" transform="matrix(0.695, -0.719, 0.719, 0.695, 1581.723, 876.478)"/><path class="g" d="M208.606-44.967c20.458,14.347,27.631,47.824,49.949,79.175,22.318,31.617,59.514,61.374,67.75,95.647,8.236,34.008-12.222,72.532-39.853,106.009-27.366,33.742-61.639,62.436-99.9,70.141-38.259,7.971-80.5-4.782-123.81-16.473s-87.677-22.052-112.12-49.949-29.226-73.064-18.6-110.26,36.665-66.156,55-95.647C5.356,3.919,15.983-26.1,36.973-40.185c21.255-14.081,52.872-12.222,85.285-13.55C154.938-55.063,188.148-59.58,208.606-44.967Z" transform="matrix(0.07, 0.998, -0.998, 0.07, 1569.71, -98.159)"/></g></g></svg>