<svg xmlns="http://www.w3.org/2000/svg" width="30" height="23.329" viewBox="0 0 30 23.329"><path d="M14.6,8.306,5,16.214v8.535a.833.833,0,0,0,.833.833l5.836-.015a.833.833,0,0,0,.829-.833V19.75a.833.833,0,0,1,.833-.833h3.333a.833.833,0,0,1,.833.833V24.73a.833.833,0,0,0,.833.836l5.834.016A.833.833,0,0,0,25,24.749V16.208l-9.6-7.9A.635.635,0,0,0,14.6,8.306Zm15.167,5.375-4.354-3.589V2.878a.625.625,0,0,0-.625-.625H21.873a.625.625,0,0,0-.625.625V6.66L16.585,2.824a2.5,2.5,0,0,0-3.177,0L.226,13.681a.625.625,0,0,0-.083.88L1.47,16.175a.625.625,0,0,0,.881.085L14.6,6.17a.635.635,0,0,1,.8,0L27.649,16.26a.625.625,0,0,0,.88-.083l1.328-1.614a.625.625,0,0,0-.089-.882Z" transform="translate(0.001 -2.254)" fill="#fff"/></svg>