<svg xmlns="http://www.w3.org/2000/svg" xmlns:xlink="http://www.w3.org/1999/xlink" width="395" height="381" viewBox="0 0 395 381"><defs><style>.a{fill:#e22424;opacity:0.28;}.b{clip-path:url(#a);}.c{fill:rgba(8,189,186,0.86);opacity:0.79;}</style><clipPath id="a"><rect class="a" width="395" height="381" transform="translate(112 2770)"/></clipPath></defs><g class="b" transform="translate(-112 -2770)"><path class="c" d="M208.606-44.967c20.458,14.347,27.631,47.824,49.949,79.175,22.318,31.617,59.514,61.374,67.75,95.647,8.236,34.008-12.222,72.532-39.853,106.009-27.366,33.742-61.639,62.436-99.9,70.141-38.259,7.971-80.5-4.782-123.81-16.473s-87.677-22.052-112.12-49.949-29.226-73.064-18.6-110.26,36.665-66.156,55-95.647C5.356,3.919,15.983-26.1,36.973-40.185c21.255-14.081,52.872-12.222,85.285-13.55C154.938-55.063,188.148-59.58,208.606-44.967Z" transform="matrix(-0.921, -0.391, 0.391, -0.921, 362.927, 3127.321)"/></g></svg>