<svg xmlns="http://www.w3.org/2000/svg" xmlns:xlink="http://www.w3.org/1999/xlink" width="474" height="485" viewBox="0 0 474 485"><defs><style>.a{fill:red;opacity:0.32;}.b{clip-path:url(#a);}.c{fill:#08bdba;opacity:0.73;}</style><clipPath id="a"><rect class="a" width="474" height="485" transform="translate(1610 2251)"/></clipPath></defs><g class="b" transform="translate(-1610 -2251)"><path class="c" d="M282.517-42.221c25.821,18.109,34.876,60.362,63.044,99.932,28.169,39.906,75.117,77.464,85.513,120.724,10.4,42.924-15.426,91.549-50.3,133.8-34.54,42.589-77.8,78.806-126.089,88.531-48.289,10.06-101.609-6.036-156.27-20.791S-12.25,352.143-43.1,316.932s-36.888-92.219-23.474-139.167S-20.3,94.264,2.841,57.041C25.98,19.483,39.393-18.411,65.885-36.184c26.827-17.773,66.733-15.426,107.645-17.1C214.778-54.964,256.7-60.664,282.517-42.221Z" transform="matrix(0.695, -0.719, 0.719, 0.695, 1592.259, 2484.786)"/></g></svg>